<?xml version="1.0" encoding="utf-8" standalone="no"?>
<!DOCTYPE svg PUBLIC "-//W3C//DTD SVG 1.1//EN"
  "http://www.w3.org/Graphics/SVG/1.1/DTD/svg11.dtd">
<svg xmlns:xlink="http://www.w3.org/1999/xlink" width="432pt" height="216pt" viewBox="0 0 432 216" xmlns="http://www.w3.org/2000/svg" version="1.1">
 <metadata>
  <rdf:RDF xmlns:dc="http://purl.org/dc/elements/1.1/" xmlns:cc="http://creativecommons.org/ns#" xmlns:rdf="http://www.w3.org/1999/02/22-rdf-syntax-ns#">
   <cc:Work>
    <dc:type rdf:resource="http://purl.org/dc/dcmitype/StillImage"/>
    <dc:date>2025-03-17T13:14:08.999162</dc:date>
    <dc:format>image/svg+xml</dc:format>
    <dc:creator>
     <cc:Agent>
      <dc:title>Matplotlib v3.9.2, https://matplotlib.org/</dc:title>
     </cc:Agent>
    </dc:creator>
   </cc:Work>
  </rdf:RDF>
 </metadata>
 <defs>
  <style type="text/css">*{stroke-linejoin: round; stroke-linecap: butt}</style>
 </defs>
 <g id="figure_1">
  <g id="patch_1">
   <path d="M 0 216 
L 432 216 
L 432 0 
L 0 0 
z
" style="fill: #ffffff"/>
  </g>
  <g id="axes_1">
   <g id="patch_2">
    <path d="M 54 192.24 
L 388.8 192.24 
L 388.8 25.92 
L 54 25.92 
z
" style="fill: #ffffff"/>
   </g>
   <g id="PolyCollection_1">
    <defs>
     <path id="mad67a48850" d="M 69.218182 -23.76 
L 69.218182 -23.76 
L 85.237321 -23.76 
L 101.256459 -23.76 
L 117.275598 -23.76 
L 133.294737 -23.76 
L 149.313876 -23.76 
L 165.333014 -23.76 
L 181.352153 -23.76 
L 197.371292 -23.76 
L 213.390431 -23.76 
L 229.409569 -23.76 
L 245.428708 -23.76 
L 261.447847 -23.76 
L 277.466986 -23.76 
L 293.486124 -23.76 
L 309.505263 -23.76 
L 325.524402 -23.76 
L 341.543541 -23.76 
L 357.562679 -23.76 
L 373.581818 -23.76 
L 373.581818 -23.76 
L 373.581818 -23.76 
L 357.562679 -23.76 
L 341.543541 -23.76 
L 325.524402 -23.76 
L 309.505263 -23.76 
L 293.486124 -23.76 
L 277.466986 -23.76 
L 261.447847 -23.76 
L 245.428708 -23.76 
L 229.409569 -23.76 
L 213.390431 -23.76 
L 197.371292 -23.76 
L 181.352153 -23.76 
L 165.333014 -23.76 
L 149.313876 -23.76 
L 133.294737 -23.76 
L 117.275598 -23.76 
L 101.256459 -23.76 
L 85.237321 -23.76 
L 69.218182 -23.76 
z
" style="stroke: #1f77b4"/>
    </defs>
    <g clip-path="url(#p692ba9353b)">
     <use xlink:href="#mad67a48850" x="0" y="216" style="fill: #1f77b4; stroke: #1f77b4"/>
    </g>
   </g>
   <g id="PolyCollection_2">
    <defs>
     <path id="mddcc74605c" d="M 69.218182 -29.672409 
L 69.218182 -23.76 
L 85.237321 -23.76 
L 101.256459 -23.76 
L 117.275598 -23.76 
L 133.294737 -23.76 
L 149.313876 -23.76 
L 165.333014 -23.76 
L 181.352153 -23.76 
L 197.371292 -23.76 
L 213.390431 -23.76 
L 229.409569 -23.76 
L 245.428708 -23.76 
L 261.447847 -23.76 
L 277.466986 -23.76 
L 293.486124 -23.76 
L 309.505263 -23.76 
L 325.524402 -23.76 
L 341.543541 -23.76 
L 357.562679 -23.76 
L 373.581818 -23.76 
L 373.581818 -27.111136 
L 373.581818 -27.111136 
L 357.562679 -26.784794 
L 341.543541 -27.234224 
L 325.524402 -27.689121 
L 309.505263 -28.629742 
L 293.486124 -28.210571 
L 277.466986 -28.381599 
L 261.447847 -28.706326 
L 245.428708 -28.293667 
L 229.409569 -29.323075 
L 213.390431 -30.82149 
L 197.371292 -30.476595 
L 181.352153 -29.026047 
L 165.333014 -28.790732 
L 149.313876 -27.2418 
L 133.294737 -28.56856 
L 117.275598 -30.132701 
L 101.256459 -29.275024 
L 85.237321 -30.437026 
L 69.218182 -29.672409 
z
" style="stroke: #ff7f0e"/>
    </defs>
    <g clip-path="url(#p692ba9353b)">
     <use xlink:href="#mddcc74605c" x="0" y="216" style="fill: #ff7f0e; stroke: #ff7f0e"/>
    </g>
   </g>
   <g id="PolyCollection_3">
    <defs>
     <path id="m5cec94c95e" d="M 69.218182 -36.830936 
L 69.218182 -29.672409 
L 85.237321 -30.437026 
L 101.256459 -29.275024 
L 117.275598 -30.132701 
L 133.294737 -28.56856 
L 149.313876 -27.2418 
L 165.333014 -28.790732 
L 181.352153 -29.026047 
L 197.371292 -30.476595 
L 213.390431 -30.82149 
L 229.409569 -29.323075 
L 245.428708 -28.293667 
L 261.447847 -28.706326 
L 277.466986 -28.381599 
L 293.486124 -28.210571 
L 309.505263 -28.629742 
L 325.524402 -27.689121 
L 341.543541 -27.234224 
L 357.562679 -26.784794 
L 373.581818 -27.111136 
L 373.581818 -35.205333 
L 373.581818 -35.205333 
L 357.562679 -35.738929 
L 341.543541 -36.25549 
L 325.524402 -35.621201 
L 309.505263 -36.177524 
L 293.486124 -35.657242 
L 277.466986 -35.429731 
L 261.447847 -34.216724 
L 245.428708 -33.500748 
L 229.409569 -33.993416 
L 213.390431 -36.036023 
L 197.371292 -35.940212 
L 181.352153 -34.643855 
L 165.333014 -34.658979 
L 149.313876 -32.351533 
L 133.294737 -33.764934 
L 117.275598 -35.865626 
L 101.256459 -34.551406 
L 85.237321 -36.686429 
L 69.218182 -36.830936 
z
" style="stroke: #2ca02c"/>
    </defs>
    <g clip-path="url(#p692ba9353b)">
     <use xlink:href="#m5cec94c95e" x="0" y="216" style="fill: #2ca02c; stroke: #2ca02c"/>
    </g>
   </g>
   <g id="PolyCollection_4">
    <defs>
     <path id="mde07b15549" d="M 69.218182 -54.760112 
L 69.218182 -36.830936 
L 85.237321 -36.686429 
L 101.256459 -34.551406 
L 117.275598 -35.865626 
L 133.294737 -33.764934 
L 149.313876 -32.351533 
L 165.333014 -34.658979 
L 181.352153 -34.643855 
L 197.371292 -35.940212 
L 213.390431 -36.036023 
L 229.409569 -33.993416 
L 245.428708 -33.500748 
L 261.447847 -34.216724 
L 277.466986 -35.429731 
L 293.486124 -35.657242 
L 309.505263 -36.177524 
L 325.524402 -35.621201 
L 341.543541 -36.25549 
L 357.562679 -35.738929 
L 373.581818 -35.205333 
L 373.581818 -58.29682 
L 373.581818 -58.29682 
L 357.562679 -58.738972 
L 341.543541 -53.346581 
L 325.524402 -53.261874 
L 309.505263 -55.906309 
L 293.486124 -56.353685 
L 277.466986 -59.510339 
L 261.447847 -55.156868 
L 245.428708 -53.856627 
L 229.409569 -60.360931 
L 213.390431 -59.867818 
L 197.371292 -59.232419 
L 181.352153 -59.0077 
L 165.333014 -57.833403 
L 149.313876 -57.871339 
L 133.294737 -62.121792 
L 117.275598 -56.44719 
L 101.256459 -53.483104 
L 85.237321 -54.677198 
L 69.218182 -54.760112 
z
" style="stroke: #d62728"/>
    </defs>
    <g clip-path="url(#p692ba9353b)">
     <use xlink:href="#mde07b15549" x="0" y="216" style="fill: #d62728; stroke: #d62728"/>
    </g>
   </g>
   <g id="PolyCollection_5">
    <defs>
     <path id="mada35d91ac" d="M 69.218182 -59.715182 
L 69.218182 -54.760112 
L 85.237321 -54.677198 
L 101.256459 -53.483104 
L 117.275598 -56.44719 
L 133.294737 -62.121792 
L 149.313876 -57.871339 
L 165.333014 -57.833403 
L 181.352153 -59.0077 
L 197.371292 -59.232419 
L 213.390431 -59.867818 
L 229.409569 -60.360931 
L 245.428708 -53.856627 
L 261.447847 -55.156868 
L 277.466986 -59.510339 
L 293.486124 -56.353685 
L 309.505263 -55.906309 
L 325.524402 -53.261874 
L 341.543541 -53.346581 
L 357.562679 -58.738972 
L 373.581818 -58.29682 
L 373.581818 -62.639921 
L 373.581818 -62.639921 
L 357.562679 -62.912758 
L 341.543541 -56.867181 
L 325.524402 -57.233713 
L 309.505263 -60.06509 
L 293.486124 -60.775532 
L 277.466986 -64.417122 
L 261.447847 -59.4925 
L 245.428708 -58.400106 
L 229.409569 -65.011617 
L 213.390431 -64.679265 
L 197.371292 -64.287397 
L 181.352153 -63.707114 
L 165.333014 -63.196249 
L 149.313876 -63.284605 
L 133.294737 -67.362317 
L 117.275598 -61.274534 
L 101.256459 -58.487494 
L 85.237321 -59.450234 
L 69.218182 -59.715182 
z
" style="stroke: #9467bd"/>
    </defs>
    <g clip-path="url(#p692ba9353b)">
     <use xlink:href="#mada35d91ac" x="0" y="216" style="fill: #9467bd; stroke: #9467bd"/>
    </g>
   </g>
   <g id="PolyCollection_6">
    <defs>
     <path id="md5581fd11c" d="M 69.218182 -67.27636 
L 69.218182 -59.715182 
L 85.237321 -59.450234 
L 101.256459 -58.487494 
L 117.275598 -61.274534 
L 133.294737 -67.362317 
L 149.313876 -63.284605 
L 165.333014 -63.196249 
L 181.352153 -63.707114 
L 197.371292 -64.287397 
L 213.390431 -64.679265 
L 229.409569 -65.011617 
L 245.428708 -58.400106 
L 261.447847 -59.4925 
L 277.466986 -64.417122 
L 293.486124 -60.775532 
L 309.505263 -60.06509 
L 325.524402 -57.233713 
L 341.543541 -56.867181 
L 357.562679 -62.912758 
L 373.581818 -62.639921 
L 373.581818 -68.547874 
L 373.581818 -68.547874 
L 357.562679 -68.568499 
L 341.543541 -61.755036 
L 325.524402 -62.436175 
L 309.505263 -65.196903 
L 293.486124 -65.974922 
L 277.466986 -70.278391 
L 261.447847 -64.287315 
L 245.428708 -63.203112 
L 229.409569 -70.160317 
L 213.390431 -70.546224 
L 197.371292 -70.134296 
L 181.352153 -70.360568 
L 165.333014 -69.870199 
L 149.313876 -70.518067 
L 133.294737 -74.77163 
L 117.275598 -68.185378 
L 101.256459 -65.740102 
L 85.237321 -66.391374 
L 69.218182 -67.27636 
z
" style="stroke: #8c564b"/>
    </defs>
    <g clip-path="url(#p692ba9353b)">
     <use xlink:href="#md5581fd11c" x="0" y="216" style="fill: #8c564b; stroke: #8c564b"/>
    </g>
   </g>
   <g id="PolyCollection_7">
    <defs>
     <path id="m8f426d0199" d="M 69.218182 -71.028143 
L 69.218182 -67.27636 
L 85.237321 -66.391374 
L 101.256459 -65.740102 
L 117.275598 -68.185378 
L 133.294737 -74.77163 
L 149.313876 -70.518067 
L 165.333014 -69.870199 
L 181.352153 -70.360568 
L 197.371292 -70.134296 
L 213.390431 -70.546224 
L 229.409569 -70.160317 
L 245.428708 -63.203112 
L 261.447847 -64.287315 
L 277.466986 -70.278391 
L 293.486124 -65.974922 
L 309.505263 -65.196903 
L 325.524402 -62.436175 
L 341.543541 -61.755036 
L 357.562679 -68.568499 
L 373.581818 -68.547874 
L 373.581818 -71.162161 
L 373.581818 -71.162161 
L 357.562679 -70.795232 
L 341.543541 -64.137927 
L 325.524402 -65.472566 
L 309.505263 -67.972444 
L 293.486124 -69.156054 
L 277.466986 -73.727889 
L 261.447847 -67.381787 
L 245.428708 -66.283815 
L 229.409569 -73.182873 
L 213.390431 -73.437963 
L 197.371292 -73.291717 
L 181.352153 -73.804309 
L 165.333014 -73.732868 
L 149.313876 -74.734625 
L 133.294737 -79.817593 
L 117.275598 -72.271737 
L 101.256459 -68.787374 
L 85.237321 -69.84909 
L 69.218182 -71.028143 
z
" style="stroke: #e377c2"/>
    </defs>
    <g clip-path="url(#p692ba9353b)">
     <use xlink:href="#m8f426d0199" x="0" y="216" style="fill: #e377c2; stroke: #e377c2"/>
    </g>
   </g>
   <g id="PolyCollection_8">
    <defs>
     <path id="m3627729e26" d="M 69.218182 -75.453895 
L 69.218182 -71.028143 
L 85.237321 -69.84909 
L 101.256459 -68.787374 
L 117.275598 -72.271737 
L 133.294737 -79.817593 
L 149.313876 -74.734625 
L 165.333014 -73.732868 
L 181.352153 -73.804309 
L 197.371292 -73.291717 
L 213.390431 -73.437963 
L 229.409569 -73.182873 
L 245.428708 -66.283815 
L 261.447847 -67.381787 
L 277.466986 -73.727889 
L 293.486124 -69.156054 
L 309.505263 -67.972444 
L 325.524402 -65.472566 
L 341.543541 -64.137927 
L 357.562679 -70.795232 
L 373.581818 -71.162161 
L 373.581818 -71.294591 
L 373.581818 -71.294591 
L 357.562679 -70.96134 
L 341.543541 -64.304094 
L 325.524402 -65.645796 
L 309.505263 -68.13198 
L 293.486124 -69.351403 
L 277.466986 -73.936266 
L 261.447847 -67.552114 
L 245.428708 -66.399974 
L 229.409569 -73.312132 
L 213.390431 -73.660978 
L 197.371292 -73.567905 
L 181.352153 -74.076051 
L 165.333014 -73.976941 
L 149.313876 -75.001177 
L 133.294737 -80.445677 
L 117.275598 -73.513088 
L 101.256459 -70.681982 
L 85.237321 -73.491758 
L 69.218182 -75.453895 
z
" style="stroke: #7f7f7f"/>
    </defs>
    <g clip-path="url(#p692ba9353b)">
     <use xlink:href="#m3627729e26" x="0" y="216" style="fill: #7f7f7f; stroke: #7f7f7f"/>
    </g>
   </g>
   <g id="PolyCollection_9">
    <defs>
     <path id="mcaee888f8b" d="M 69.218182 -84.37826 
L 69.218182 -75.453895 
L 85.237321 -73.491758 
L 101.256459 -70.681982 
L 117.275598 -73.513088 
L 133.294737 -80.445677 
L 149.313876 -75.001177 
L 165.333014 -73.976941 
L 181.352153 -74.076051 
L 197.371292 -73.567905 
L 213.390431 -73.660978 
L 229.409569 -73.312132 
L 245.428708 -66.399974 
L 261.447847 -67.552114 
L 277.466986 -73.936266 
L 293.486124 -69.351403 
L 309.505263 -68.13198 
L 325.524402 -65.645796 
L 341.543541 -64.304094 
L 357.562679 -70.96134 
L 373.581818 -71.294591 
L 373.581818 -76.674758 
L 373.581818 -76.674758 
L 357.562679 -77.226455 
L 341.543541 -70.308763 
L 325.524402 -71.799309 
L 309.505263 -74.292914 
L 293.486124 -75.162758 
L 277.466986 -79.975184 
L 261.447847 -72.438276 
L 245.428708 -71.046768 
L 229.409569 -77.694955 
L 213.390431 -78.484252 
L 197.371292 -79.331194 
L 181.352153 -79.947132 
L 165.333014 -80.271538 
L 149.313876 -81.862485 
L 133.294737 -88.981339 
L 117.275598 -78.994076 
L 101.256459 -76.753635 
L 85.237321 -81.348085 
L 69.218182 -84.37826 
z
" style="stroke: #bcbd22"/>
    </defs>
    <g clip-path="url(#p692ba9353b)">
     <use xlink:href="#mcaee888f8b" x="0" y="216" style="fill: #bcbd22; stroke: #bcbd22"/>
    </g>
   </g>
   <g id="PolyCollection_10">
    <defs>
     <path id="m13603538a4" d="M 69.218182 -91.254494 
L 69.218182 -84.37826 
L 85.237321 -81.348085 
L 101.256459 -76.753635 
L 117.275598 -78.994076 
L 133.294737 -88.981339 
L 149.313876 -81.862485 
L 165.333014 -80.271538 
L 181.352153 -79.947132 
L 197.371292 -79.331194 
L 213.390431 -78.484252 
L 229.409569 -77.694955 
L 245.428708 -71.046768 
L 261.447847 -72.438276 
L 277.466986 -79.975184 
L 293.486124 -75.162758 
L 309.505263 -74.292914 
L 325.524402 -71.799309 
L 341.543541 -70.308763 
L 357.562679 -77.226455 
L 373.581818 -76.674758 
L 373.581818 -80.607675 
L 373.581818 -80.607675 
L 357.562679 -81.469065 
L 341.543541 -74.340754 
L 325.524402 -75.715603 
L 309.505263 -78.057582 
L 293.486124 -79.339597 
L 277.466986 -84.283265 
L 261.447847 -75.950161 
L 245.428708 -73.813922 
L 229.409569 -80.641426 
L 213.390431 -82.385635 
L 197.371292 -83.710858 
L 181.352153 -84.61305 
L 165.333014 -85.671306 
L 149.313876 -87.234385 
L 133.294737 -94.102278 
L 117.275598 -83.449514 
L 101.256459 -81.710242 
L 85.237321 -87.477993 
L 69.218182 -91.254494 
z
" style="stroke: #17becf"/>
    </defs>
    <g clip-path="url(#p692ba9353b)">
     <use xlink:href="#m13603538a4" x="0" y="216" style="fill: #17becf; stroke: #17becf"/>
    </g>
   </g>
   <g id="PolyCollection_11">
    <defs>
     <path id="m3eb4d5cbe7" d="M 69.218182 -109.821058 
L 69.218182 -91.254494 
L 85.237321 -87.477993 
L 101.256459 -81.710242 
L 117.275598 -83.449514 
L 133.294737 -94.102278 
L 149.313876 -87.234385 
L 165.333014 -85.671306 
L 181.352153 -84.61305 
L 197.371292 -83.710858 
L 213.390431 -82.385635 
L 229.409569 -80.641426 
L 245.428708 -73.813922 
L 261.447847 -75.950161 
L 277.466986 -84.283265 
L 293.486124 -79.339597 
L 309.505263 -78.057582 
L 325.524402 -75.715603 
L 341.543541 -74.340754 
L 357.562679 -81.469065 
L 373.581818 -80.607675 
L 373.581818 -136.686933 
L 373.581818 -136.686933 
L 357.562679 -144.33086 
L 341.543541 -144.046803 
L 325.524402 -140.553912 
L 309.505263 -135.301805 
L 293.486124 -133.376296 
L 277.466986 -128.010322 
L 261.447847 -133.431365 
L 245.428708 -135.385311 
L 229.409569 -130.173419 
L 213.390431 -127.165239 
L 197.371292 -130.63602 
L 181.352153 -129.903952 
L 165.333014 -124.385839 
L 149.313876 -119.082166 
L 133.294737 -114.057826 
L 117.275598 -115.341791 
L 101.256459 -115.272252 
L 85.237321 -110.882452 
L 69.218182 -109.821058 
z
" style="stroke: #1f77b4"/>
    </defs>
    <g clip-path="url(#p692ba9353b)">
     <use xlink:href="#m3eb4d5cbe7" x="0" y="216" style="fill: #1f77b4; stroke: #1f77b4"/>
    </g>
   </g>
   <g id="PolyCollection_12">
    <defs>
     <path id="mcc3ba0830e" d="M 69.218182 -112.429664 
L 69.218182 -109.821058 
L 85.237321 -110.882452 
L 101.256459 -115.272252 
L 117.275598 -115.341791 
L 133.294737 -114.057826 
L 149.313876 -119.082166 
L 165.333014 -124.385839 
L 181.352153 -129.903952 
L 197.371292 -130.63602 
L 213.390431 -127.165239 
L 229.409569 -130.173419 
L 245.428708 -135.385311 
L 261.447847 -133.431365 
L 277.466986 -128.010322 
L 293.486124 -133.376296 
L 309.505263 -135.301805 
L 325.524402 -140.553912 
L 341.543541 -144.046803 
L 357.562679 -144.33086 
L 373.581818 -136.686933 
L 373.581818 -138.439572 
L 373.581818 -138.439572 
L 357.562679 -145.935527 
L 341.543541 -145.796273 
L 325.524402 -142.365861 
L 309.505263 -137.441305 
L 293.486124 -135.800174 
L 277.466986 -130.843766 
L 261.447847 -136.222696 
L 245.428708 -138.168078 
L 229.409569 -133.183917 
L 213.390431 -130.202907 
L 197.371292 -133.446393 
L 181.352153 -132.803243 
L 165.333014 -127.491326 
L 149.313876 -122.06994 
L 133.294737 -116.549678 
L 117.275598 -118.17312 
L 101.256459 -117.551279 
L 85.237321 -113.376121 
L 69.218182 -112.429664 
z
" style="stroke: #ff7f0e"/>
    </defs>
    <g clip-path="url(#p692ba9353b)">
     <use xlink:href="#mcc3ba0830e" x="0" y="216" style="fill: #ff7f0e; stroke: #ff7f0e"/>
    </g>
   </g>
   <g id="PolyCollection_13">
    <defs>
     <path id="m456c9531d3" d="M 69.218182 -114.799139 
L 69.218182 -112.429664 
L 85.237321 -113.376121 
L 101.256459 -117.551279 
L 117.275598 -118.17312 
L 133.294737 -116.549678 
L 149.313876 -122.06994 
L 165.333014 -127.491326 
L 181.352153 -132.803243 
L 197.371292 -133.446393 
L 213.390431 -130.202907 
L 229.409569 -133.183917 
L 245.428708 -138.168078 
L 261.447847 -136.222696 
L 277.466986 -130.843766 
L 293.486124 -135.800174 
L 309.505263 -137.441305 
L 325.524402 -142.365861 
L 341.543541 -145.796273 
L 357.562679 -145.935527 
L 373.581818 -138.439572 
L 373.581818 -140.139368 
L 373.581818 -140.139368 
L 357.562679 -147.510021 
L 341.543541 -147.307382 
L 325.524402 -143.836406 
L 309.505263 -138.898652 
L 293.486124 -137.436752 
L 277.466986 -132.551271 
L 261.447847 -137.713152 
L 245.428708 -139.490057 
L 229.409569 -134.598156 
L 213.390431 -131.640959 
L 197.371292 -134.752773 
L 181.352153 -134.092458 
L 165.333014 -129.135909 
L 149.313876 -123.688791 
L 133.294737 -118.483046 
L 117.275598 -119.673364 
L 101.256459 -119.236354 
L 85.237321 -115.470641 
L 69.218182 -114.799139 
z
" style="stroke: #2ca02c"/>
    </defs>
    <g clip-path="url(#p692ba9353b)">
     <use xlink:href="#m456c9531d3" x="0" y="216" style="fill: #2ca02c; stroke: #2ca02c"/>
    </g>
   </g>
   <g id="PolyCollection_14">
    <defs>
     <path id="m73eade9f19" d="M 69.218182 -122.893651 
L 69.218182 -114.799139 
L 85.237321 -115.470641 
L 101.256459 -119.236354 
L 117.275598 -119.673364 
L 133.294737 -118.483046 
L 149.313876 -123.688791 
L 165.333014 -129.135909 
L 181.352153 -134.092458 
L 197.371292 -134.752773 
L 213.390431 -131.640959 
L 229.409569 -134.598156 
L 245.428708 -139.490057 
L 261.447847 -137.713152 
L 277.466986 -132.551271 
L 293.486124 -137.436752 
L 309.505263 -138.898652 
L 325.524402 -143.836406 
L 341.543541 -147.307382 
L 357.562679 -147.510021 
L 373.581818 -140.139368 
L 373.581818 -147.170121 
L 373.581818 -147.170121 
L 357.562679 -153.554572 
L 341.543541 -152.610815 
L 325.524402 -149.813638 
L 309.505263 -145.144952 
L 293.486124 -143.40666 
L 277.466986 -138.946328 
L 261.447847 -142.810884 
L 245.428708 -144.244023 
L 229.409569 -139.853496 
L 213.390431 -137.351311 
L 197.371292 -140.441314 
L 181.352153 -140.696044 
L 165.333014 -136.361694 
L 149.313876 -131.322567 
L 133.294737 -126.747221 
L 117.275598 -126.810585 
L 101.256459 -125.729694 
L 85.237321 -122.173555 
L 69.218182 -122.893651 
z
" style="stroke: #d62728"/>
    </defs>
    <g clip-path="url(#p692ba9353b)">
     <use xlink:href="#m73eade9f19" x="0" y="216" style="fill: #d62728; stroke: #d62728"/>
    </g>
   </g>
   <g id="PolyCollection_15">
    <defs>
     <path id="m98c46e30bc" d="M 69.218182 -138.923686 
L 69.218182 -122.893651 
L 85.237321 -122.173555 
L 101.256459 -125.729694 
L 117.275598 -126.810585 
L 133.294737 -126.747221 
L 149.313876 -131.322567 
L 165.333014 -136.361694 
L 181.352153 -140.696044 
L 197.371292 -140.441314 
L 213.390431 -137.351311 
L 229.409569 -139.853496 
L 245.428708 -144.244023 
L 261.447847 -142.810884 
L 277.466986 -138.946328 
L 293.486124 -143.40666 
L 309.505263 -145.144952 
L 325.524402 -149.813638 
L 341.543541 -152.610815 
L 357.562679 -153.554572 
L 373.581818 -147.170121 
L 373.581818 -155.969057 
L 373.581818 -155.969057 
L 357.562679 -160.958898 
L 341.543541 -159.896205 
L 325.524402 -158.303258 
L 309.505263 -154.793719 
L 293.486124 -153.998622 
L 277.466986 -149.758584 
L 261.447847 -152.945426 
L 245.428708 -153.986366 
L 229.409569 -150.910404 
L 213.390431 -148.78419 
L 197.371292 -151.520196 
L 181.352153 -151.255551 
L 165.333014 -149.064482 
L 149.313876 -146.98597 
L 133.294737 -145.244727 
L 117.275598 -143.272384 
L 101.256459 -141.161761 
L 85.237321 -137.684 
L 69.218182 -138.923686 
z
" style="stroke: #9467bd"/>
    </defs>
    <g clip-path="url(#p692ba9353b)">
     <use xlink:href="#m98c46e30bc" x="0" y="216" style="fill: #9467bd; stroke: #9467bd"/>
    </g>
   </g>
   <g id="PolyCollection_16">
    <defs>
     <path id="m38afce0261" d="M 69.218182 -153.83781 
L 69.218182 -138.923686 
L 85.237321 -137.684 
L 101.256459 -141.161761 
L 117.275598 -143.272384 
L 133.294737 -145.244727 
L 149.313876 -146.98597 
L 165.333014 -149.064482 
L 181.352153 -151.255551 
L 197.371292 -151.520196 
L 213.390431 -148.78419 
L 229.409569 -150.910404 
L 245.428708 -153.986366 
L 261.447847 -152.945426 
L 277.466986 -149.758584 
L 293.486124 -153.998622 
L 309.505263 -154.793719 
L 325.524402 -158.303258 
L 341.543541 -159.896205 
L 357.562679 -160.958898 
L 373.581818 -155.969057 
L 373.581818 -159.47538 
L 373.581818 -159.47538 
L 357.562679 -163.955776 
L 341.543541 -165.739967 
L 325.524402 -164.843843 
L 309.505263 -164.446319 
L 293.486124 -163.345676 
L 277.466986 -160.256683 
L 261.447847 -162.086377 
L 245.428708 -161.407963 
L 229.409569 -160.649735 
L 213.390431 -160.40049 
L 197.371292 -160.335591 
L 181.352153 -160.27951 
L 165.333014 -158.161152 
L 149.313876 -157.513566 
L 133.294737 -155.073525 
L 117.275598 -158.225787 
L 101.256459 -156.626612 
L 85.237321 -154.777343 
L 69.218182 -153.83781 
z
" style="stroke: #8c564b"/>
    </defs>
    <g clip-path="url(#p692ba9353b)">
     <use xlink:href="#m38afce0261" x="0" y="216" style="fill: #8c564b; stroke: #8c564b"/>
    </g>
   </g>
   <g id="PolyCollection_17">
    <defs>
     <path id="m32ebe4f6d1" d="M 69.218182 -161.939958 
L 69.218182 -153.83781 
L 85.237321 -154.777343 
L 101.256459 -156.626612 
L 117.275598 -158.225787 
L 133.294737 -155.073525 
L 149.313876 -157.513566 
L 165.333014 -158.161152 
L 181.352153 -160.27951 
L 197.371292 -160.335591 
L 213.390431 -160.40049 
L 229.409569 -160.649735 
L 245.428708 -161.407963 
L 261.447847 -162.086377 
L 277.466986 -160.256683 
L 293.486124 -163.345676 
L 309.505263 -164.446319 
L 325.524402 -164.843843 
L 341.543541 -165.739967 
L 357.562679 -163.955776 
L 373.581818 -159.47538 
L 373.581818 -167.402747 
L 373.581818 -167.402747 
L 357.562679 -170.35922 
L 341.543541 -171.046718 
L 325.524402 -171.160235 
L 309.505263 -170.172441 
L 293.486124 -169.277182 
L 277.466986 -167.358699 
L 261.447847 -168.655292 
L 245.428708 -168.506827 
L 229.409569 -168.695955 
L 213.390431 -167.776027 
L 197.371292 -167.651961 
L 181.352153 -167.961601 
L 165.333014 -166.201217 
L 149.313876 -165.344464 
L 133.294737 -162.850371 
L 117.275598 -164.412324 
L 101.256459 -163.316531 
L 85.237321 -161.59872 
L 69.218182 -161.939958 
z
" style="stroke: #e377c2"/>
    </defs>
    <g clip-path="url(#p692ba9353b)">
     <use xlink:href="#m32ebe4f6d1" x="0" y="216" style="fill: #e377c2; stroke: #e377c2"/>
    </g>
   </g>
   <g id="PolyCollection_18">
    <defs>
     <path id="ma270bbd364" d="M 69.218182 -177.699593 
L 69.218182 -161.939958 
L 85.237321 -161.59872 
L 101.256459 -163.316531 
L 117.275598 -164.412324 
L 133.294737 -162.850371 
L 149.313876 -165.344464 
L 165.333014 -166.201217 
L 181.352153 -167.961601 
L 197.371292 -167.651961 
L 213.390431 -167.776027 
L 229.409569 -168.695955 
L 245.428708 -168.506827 
L 261.447847 -168.655292 
L 277.466986 -167.358699 
L 293.486124 -169.277182 
L 309.505263 -170.172441 
L 325.524402 -171.160235 
L 341.543541 -171.046718 
L 357.562679 -170.35922 
L 373.581818 -167.402747 
L 373.581818 -178.553208 
L 373.581818 -178.553208 
L 357.562679 -179.265806 
L 341.543541 -179.443941 
L 325.524402 -179.384701 
L 309.505263 -179.102301 
L 293.486124 -178.853331 
L 277.466986 -178.247676 
L 261.447847 -178.684491 
L 245.428708 -178.709471 
L 229.409569 -178.447067 
L 213.390431 -178.510763 
L 197.371292 -178.292341 
L 181.352153 -178.466867 
L 165.333014 -178.237885 
L 149.313876 -177.90827 
L 133.294737 -177.464826 
L 117.275598 -178.095842 
L 101.256459 -178.028993 
L 85.237321 -177.945354 
L 69.218182 -177.699593 
z
" style="stroke: #7f7f7f"/>
    </defs>
    <g clip-path="url(#p692ba9353b)">
     <use xlink:href="#ma270bbd364" x="0" y="216" style="fill: #7f7f7f; stroke: #7f7f7f"/>
    </g>
   </g>
   <g id="PolyCollection_19">
    <defs>
     <path id="mee75756f5f" d="M 69.218182 -181.280167 
L 69.218182 -177.699593 
L 85.237321 -177.945354 
L 101.256459 -178.028993 
L 117.275598 -178.095842 
L 133.294737 -177.464826 
L 149.313876 -177.90827 
L 165.333014 -178.237885 
L 181.352153 -178.466867 
L 197.371292 -178.292341 
L 213.390431 -178.510763 
L 229.409569 -178.447067 
L 245.428708 -178.709471 
L 261.447847 -178.684491 
L 277.466986 -178.247676 
L 293.486124 -178.853331 
L 309.505263 -179.102301 
L 325.524402 -179.384701 
L 341.543541 -179.443941 
L 357.562679 -179.265806 
L 373.581818 -178.553208 
L 373.581818 -181.85251 
L 373.581818 -181.85251 
L 357.562679 -182.014624 
L 341.543541 -181.983281 
L 325.524402 -182.007986 
L 309.505263 -181.943916 
L 293.486124 -181.944975 
L 277.466986 -181.841126 
L 261.447847 -181.679964 
L 245.428708 -181.673376 
L 229.409569 -181.470909 
L 213.390431 -181.490625 
L 197.371292 -181.334685 
L 181.352153 -181.138268 
L 165.333014 -181.364186 
L 149.313876 -181.326672 
L 133.294737 -181.296355 
L 117.275598 -181.263565 
L 101.256459 -181.416505 
L 85.237321 -181.489779 
L 69.218182 -181.280167 
z
" style="stroke: #bcbd22"/>
    </defs>
    <g clip-path="url(#p692ba9353b)">
     <use xlink:href="#mee75756f5f" x="0" y="216" style="fill: #bcbd22; stroke: #bcbd22"/>
    </g>
   </g>
   <g id="PolyCollection_20">
    <defs>
     <path id="m95c55c44b2" d="M 69.218182 -182.16 
L 69.218182 -181.280167 
L 85.237321 -181.489779 
L 101.256459 -181.416505 
L 117.275598 -181.263565 
L 133.294737 -181.296355 
L 149.313876 -181.326672 
L 165.333014 -181.364186 
L 181.352153 -181.138268 
L 197.371292 -181.334685 
L 213.390431 -181.490625 
L 229.409569 -181.470909 
L 245.428708 -181.673376 
L 261.447847 -181.679964 
L 277.466986 -181.841126 
L 293.486124 -181.944975 
L 309.505263 -181.943916 
L 325.524402 -182.007986 
L 341.543541 -181.983281 
L 357.562679 -182.014624 
L 373.581818 -181.85251 
L 373.581818 -182.16 
L 373.581818 -182.16 
L 357.562679 -182.16 
L 341.543541 -182.16 
L 325.524402 -182.16 
L 309.505263 -182.16 
L 293.486124 -182.16 
L 277.466986 -182.16 
L 261.447847 -182.16 
L 245.428708 -182.16 
L 229.409569 -182.16 
L 213.390431 -182.16 
L 197.371292 -182.16 
L 181.352153 -182.16 
L 165.333014 -182.16 
L 149.313876 -182.16 
L 133.294737 -182.16 
L 117.275598 -182.16 
L 101.256459 -182.16 
L 85.237321 -182.16 
L 69.218182 -182.16 
z
" style="stroke: #17becf"/>
    </defs>
    <g clip-path="url(#p692ba9353b)">
     <use xlink:href="#m95c55c44b2" x="0" y="216" style="fill: #17becf; stroke: #17becf"/>
    </g>
   </g>
   <g id="matplotlib.axis_1">
    <g id="xtick_1">
     <g id="line2d_1">
      <defs>
       <path id="m040e0ce949" d="M 0 0 
L 0 3.5 
" style="stroke: #000000; stroke-width: 0.8"/>
      </defs>
      <g>
       <use xlink:href="#m040e0ce949" x="93.24689" y="192.24" style="stroke: #000000; stroke-width: 0.8"/>
      </g>
     </g>
     <g id="text_1">
      <!-- 2.5 -->
      <g transform="translate(85.295327 206.838437) scale(0.1 -0.1)">
       <defs>
        <path id="DejaVuSans-32" d="M 1228 531 
L 3431 531 
L 3431 0 
L 469 0 
L 469 531 
Q 828 903 1448 1529 
Q 2069 2156 2228 2338 
Q 2531 2678 2651 2914 
Q 2772 3150 2772 3378 
Q 2772 3750 2511 3984 
Q 2250 4219 1831 4219 
Q 1534 4219 1204 4116 
Q 875 4013 500 3803 
L 500 4441 
Q 881 4594 1212 4672 
Q 1544 4750 1819 4750 
Q 2544 4750 2975 4387 
Q 3406 4025 3406 3419 
Q 3406 3131 3298 2873 
Q 3191 2616 2906 2266 
Q 2828 2175 2409 1742 
Q 1991 1309 1228 531 
z
" transform="scale(0.015625)"/>
        <path id="DejaVuSans-2e" d="M 684 794 
L 1344 794 
L 1344 0 
L 684 0 
L 684 794 
z
" transform="scale(0.015625)"/>
        <path id="DejaVuSans-35" d="M 691 4666 
L 3169 4666 
L 3169 4134 
L 1269 4134 
L 1269 2991 
Q 1406 3038 1543 3061 
Q 1681 3084 1819 3084 
Q 2600 3084 3056 2656 
Q 3513 2228 3513 1497 
Q 3513 744 3044 326 
Q 2575 -91 1722 -91 
Q 1428 -91 1123 -41 
Q 819 9 494 109 
L 494 744 
Q 775 591 1075 516 
Q 1375 441 1709 441 
Q 2250 441 2565 725 
Q 2881 1009 2881 1497 
Q 2881 1984 2565 2268 
Q 2250 2553 1709 2553 
Q 1456 2553 1204 2497 
Q 953 2441 691 2322 
L 691 4666 
z
" transform="scale(0.015625)"/>
       </defs>
       <use xlink:href="#DejaVuSans-32"/>
       <use xlink:href="#DejaVuSans-2e" x="63.623047"/>
       <use xlink:href="#DejaVuSans-35" x="95.410156"/>
      </g>
     </g>
    </g>
    <g id="xtick_2">
     <g id="line2d_2">
      <g>
       <use xlink:href="#m040e0ce949" x="133.294737" y="192.24" style="stroke: #000000; stroke-width: 0.8"/>
      </g>
     </g>
     <g id="text_2">
      <!-- 5.0 -->
      <g transform="translate(125.343174 206.838437) scale(0.1 -0.1)">
       <defs>
        <path id="DejaVuSans-30" d="M 2034 4250 
Q 1547 4250 1301 3770 
Q 1056 3291 1056 2328 
Q 1056 1369 1301 889 
Q 1547 409 2034 409 
Q 2525 409 2770 889 
Q 3016 1369 3016 2328 
Q 3016 3291 2770 3770 
Q 2525 4250 2034 4250 
z
M 2034 4750 
Q 2819 4750 3233 4129 
Q 3647 3509 3647 2328 
Q 3647 1150 3233 529 
Q 2819 -91 2034 -91 
Q 1250 -91 836 529 
Q 422 1150 422 2328 
Q 422 3509 836 4129 
Q 1250 4750 2034 4750 
z
" transform="scale(0.015625)"/>
       </defs>
       <use xlink:href="#DejaVuSans-35"/>
       <use xlink:href="#DejaVuSans-2e" x="63.623047"/>
       <use xlink:href="#DejaVuSans-30" x="95.410156"/>
      </g>
     </g>
    </g>
    <g id="xtick_3">
     <g id="line2d_3">
      <g>
       <use xlink:href="#m040e0ce949" x="173.342584" y="192.24" style="stroke: #000000; stroke-width: 0.8"/>
      </g>
     </g>
     <g id="text_3">
      <!-- 7.5 -->
      <g transform="translate(165.391021 206.838437) scale(0.1 -0.1)">
       <defs>
        <path id="DejaVuSans-37" d="M 525 4666 
L 3525 4666 
L 3525 4397 
L 1831 0 
L 1172 0 
L 2766 4134 
L 525 4134 
L 525 4666 
z
" transform="scale(0.015625)"/>
       </defs>
       <use xlink:href="#DejaVuSans-37"/>
       <use xlink:href="#DejaVuSans-2e" x="63.623047"/>
       <use xlink:href="#DejaVuSans-35" x="95.410156"/>
      </g>
     </g>
    </g>
    <g id="xtick_4">
     <g id="line2d_4">
      <g>
       <use xlink:href="#m040e0ce949" x="213.390431" y="192.24" style="stroke: #000000; stroke-width: 0.8"/>
      </g>
     </g>
     <g id="text_4">
      <!-- 10.0 -->
      <g transform="translate(202.257618 206.838437) scale(0.1 -0.1)">
       <defs>
        <path id="DejaVuSans-31" d="M 794 531 
L 1825 531 
L 1825 4091 
L 703 3866 
L 703 4441 
L 1819 4666 
L 2450 4666 
L 2450 531 
L 3481 531 
L 3481 0 
L 794 0 
L 794 531 
z
" transform="scale(0.015625)"/>
       </defs>
       <use xlink:href="#DejaVuSans-31"/>
       <use xlink:href="#DejaVuSans-30" x="63.623047"/>
       <use xlink:href="#DejaVuSans-2e" x="127.246094"/>
       <use xlink:href="#DejaVuSans-30" x="159.033203"/>
      </g>
     </g>
    </g>
    <g id="xtick_5">
     <g id="line2d_5">
      <g>
       <use xlink:href="#m040e0ce949" x="253.438278" y="192.24" style="stroke: #000000; stroke-width: 0.8"/>
      </g>
     </g>
     <g id="text_5">
      <!-- 12.5 -->
      <g transform="translate(242.305465 206.838437) scale(0.1 -0.1)">
       <use xlink:href="#DejaVuSans-31"/>
       <use xlink:href="#DejaVuSans-32" x="63.623047"/>
       <use xlink:href="#DejaVuSans-2e" x="127.246094"/>
       <use xlink:href="#DejaVuSans-35" x="159.033203"/>
      </g>
     </g>
    </g>
    <g id="xtick_6">
     <g id="line2d_6">
      <g>
       <use xlink:href="#m040e0ce949" x="293.486124" y="192.24" style="stroke: #000000; stroke-width: 0.8"/>
      </g>
     </g>
     <g id="text_6">
      <!-- 15.0 -->
      <g transform="translate(282.353312 206.838437) scale(0.1 -0.1)">
       <use xlink:href="#DejaVuSans-31"/>
       <use xlink:href="#DejaVuSans-35" x="63.623047"/>
       <use xlink:href="#DejaVuSans-2e" x="127.246094"/>
       <use xlink:href="#DejaVuSans-30" x="159.033203"/>
      </g>
     </g>
    </g>
    <g id="xtick_7">
     <g id="line2d_7">
      <g>
       <use xlink:href="#m040e0ce949" x="333.533971" y="192.24" style="stroke: #000000; stroke-width: 0.8"/>
      </g>
     </g>
     <g id="text_7">
      <!-- 17.5 -->
      <g transform="translate(322.401159 206.838437) scale(0.1 -0.1)">
       <use xlink:href="#DejaVuSans-31"/>
       <use xlink:href="#DejaVuSans-37" x="63.623047"/>
       <use xlink:href="#DejaVuSans-2e" x="127.246094"/>
       <use xlink:href="#DejaVuSans-35" x="159.033203"/>
      </g>
     </g>
    </g>
    <g id="xtick_8">
     <g id="line2d_8">
      <g>
       <use xlink:href="#m040e0ce949" x="373.581818" y="192.24" style="stroke: #000000; stroke-width: 0.8"/>
      </g>
     </g>
     <g id="text_8">
      <!-- 20.0 -->
      <g transform="translate(362.449006 206.838437) scale(0.1 -0.1)">
       <use xlink:href="#DejaVuSans-32"/>
       <use xlink:href="#DejaVuSans-30" x="63.623047"/>
       <use xlink:href="#DejaVuSans-2e" x="127.246094"/>
       <use xlink:href="#DejaVuSans-30" x="159.033203"/>
      </g>
     </g>
    </g>
    <g id="text_9">
     <!-- Rebalance Period -->
     <g transform="translate(178.210938 220.516562) scale(0.1 -0.1)">
      <defs>
       <path id="DejaVuSans-52" d="M 2841 2188 
Q 3044 2119 3236 1894 
Q 3428 1669 3622 1275 
L 4263 0 
L 3584 0 
L 2988 1197 
Q 2756 1666 2539 1819 
Q 2322 1972 1947 1972 
L 1259 1972 
L 1259 0 
L 628 0 
L 628 4666 
L 2053 4666 
Q 2853 4666 3247 4331 
Q 3641 3997 3641 3322 
Q 3641 2881 3436 2590 
Q 3231 2300 2841 2188 
z
M 1259 4147 
L 1259 2491 
L 2053 2491 
Q 2509 2491 2742 2702 
Q 2975 2913 2975 3322 
Q 2975 3731 2742 3939 
Q 2509 4147 2053 4147 
L 1259 4147 
z
" transform="scale(0.015625)"/>
       <path id="DejaVuSans-65" d="M 3597 1894 
L 3597 1613 
L 953 1613 
Q 991 1019 1311 708 
Q 1631 397 2203 397 
Q 2534 397 2845 478 
Q 3156 559 3463 722 
L 3463 178 
Q 3153 47 2828 -22 
Q 2503 -91 2169 -91 
Q 1331 -91 842 396 
Q 353 884 353 1716 
Q 353 2575 817 3079 
Q 1281 3584 2069 3584 
Q 2775 3584 3186 3129 
Q 3597 2675 3597 1894 
z
M 3022 2063 
Q 3016 2534 2758 2815 
Q 2500 3097 2075 3097 
Q 1594 3097 1305 2825 
Q 1016 2553 972 2059 
L 3022 2063 
z
" transform="scale(0.015625)"/>
       <path id="DejaVuSans-62" d="M 3116 1747 
Q 3116 2381 2855 2742 
Q 2594 3103 2138 3103 
Q 1681 3103 1420 2742 
Q 1159 2381 1159 1747 
Q 1159 1113 1420 752 
Q 1681 391 2138 391 
Q 2594 391 2855 752 
Q 3116 1113 3116 1747 
z
M 1159 2969 
Q 1341 3281 1617 3432 
Q 1894 3584 2278 3584 
Q 2916 3584 3314 3078 
Q 3713 2572 3713 1747 
Q 3713 922 3314 415 
Q 2916 -91 2278 -91 
Q 1894 -91 1617 61 
Q 1341 213 1159 525 
L 1159 0 
L 581 0 
L 581 4863 
L 1159 4863 
L 1159 2969 
z
" transform="scale(0.015625)"/>
       <path id="DejaVuSans-61" d="M 2194 1759 
Q 1497 1759 1228 1600 
Q 959 1441 959 1056 
Q 959 750 1161 570 
Q 1363 391 1709 391 
Q 2188 391 2477 730 
Q 2766 1069 2766 1631 
L 2766 1759 
L 2194 1759 
z
M 3341 1997 
L 3341 0 
L 2766 0 
L 2766 531 
Q 2569 213 2275 61 
Q 1981 -91 1556 -91 
Q 1019 -91 701 211 
Q 384 513 384 1019 
Q 384 1609 779 1909 
Q 1175 2209 1959 2209 
L 2766 2209 
L 2766 2266 
Q 2766 2663 2505 2880 
Q 2244 3097 1772 3097 
Q 1472 3097 1187 3025 
Q 903 2953 641 2809 
L 641 3341 
Q 956 3463 1253 3523 
Q 1550 3584 1831 3584 
Q 2591 3584 2966 3190 
Q 3341 2797 3341 1997 
z
" transform="scale(0.015625)"/>
       <path id="DejaVuSans-6c" d="M 603 4863 
L 1178 4863 
L 1178 0 
L 603 0 
L 603 4863 
z
" transform="scale(0.015625)"/>
       <path id="DejaVuSans-6e" d="M 3513 2113 
L 3513 0 
L 2938 0 
L 2938 2094 
Q 2938 2591 2744 2837 
Q 2550 3084 2163 3084 
Q 1697 3084 1428 2787 
Q 1159 2491 1159 1978 
L 1159 0 
L 581 0 
L 581 3500 
L 1159 3500 
L 1159 2956 
Q 1366 3272 1645 3428 
Q 1925 3584 2291 3584 
Q 2894 3584 3203 3211 
Q 3513 2838 3513 2113 
z
" transform="scale(0.015625)"/>
       <path id="DejaVuSans-63" d="M 3122 3366 
L 3122 2828 
Q 2878 2963 2633 3030 
Q 2388 3097 2138 3097 
Q 1578 3097 1268 2742 
Q 959 2388 959 1747 
Q 959 1106 1268 751 
Q 1578 397 2138 397 
Q 2388 397 2633 464 
Q 2878 531 3122 666 
L 3122 134 
Q 2881 22 2623 -34 
Q 2366 -91 2075 -91 
Q 1284 -91 818 406 
Q 353 903 353 1747 
Q 353 2603 823 3093 
Q 1294 3584 2113 3584 
Q 2378 3584 2631 3529 
Q 2884 3475 3122 3366 
z
" transform="scale(0.015625)"/>
       <path id="DejaVuSans-20" transform="scale(0.015625)"/>
       <path id="DejaVuSans-50" d="M 1259 4147 
L 1259 2394 
L 2053 2394 
Q 2494 2394 2734 2622 
Q 2975 2850 2975 3272 
Q 2975 3691 2734 3919 
Q 2494 4147 2053 4147 
L 1259 4147 
z
M 628 4666 
L 2053 4666 
Q 2838 4666 3239 4311 
Q 3641 3956 3641 3272 
Q 3641 2581 3239 2228 
Q 2838 1875 2053 1875 
L 1259 1875 
L 1259 0 
L 628 0 
L 628 4666 
z
" transform="scale(0.015625)"/>
       <path id="DejaVuSans-72" d="M 2631 2963 
Q 2534 3019 2420 3045 
Q 2306 3072 2169 3072 
Q 1681 3072 1420 2755 
Q 1159 2438 1159 1844 
L 1159 0 
L 581 0 
L 581 3500 
L 1159 3500 
L 1159 2956 
Q 1341 3275 1631 3429 
Q 1922 3584 2338 3584 
Q 2397 3584 2469 3576 
Q 2541 3569 2628 3553 
L 2631 2963 
z
" transform="scale(0.015625)"/>
       <path id="DejaVuSans-69" d="M 603 3500 
L 1178 3500 
L 1178 0 
L 603 0 
L 603 3500 
z
M 603 4863 
L 1178 4863 
L 1178 4134 
L 603 4134 
L 603 4863 
z
" transform="scale(0.015625)"/>
       <path id="DejaVuSans-6f" d="M 1959 3097 
Q 1497 3097 1228 2736 
Q 959 2375 959 1747 
Q 959 1119 1226 758 
Q 1494 397 1959 397 
Q 2419 397 2687 759 
Q 2956 1122 2956 1747 
Q 2956 2369 2687 2733 
Q 2419 3097 1959 3097 
z
M 1959 3584 
Q 2709 3584 3137 3096 
Q 3566 2609 3566 1747 
Q 3566 888 3137 398 
Q 2709 -91 1959 -91 
Q 1206 -91 779 398 
Q 353 888 353 1747 
Q 353 2609 779 3096 
Q 1206 3584 1959 3584 
z
" transform="scale(0.015625)"/>
       <path id="DejaVuSans-64" d="M 2906 2969 
L 2906 4863 
L 3481 4863 
L 3481 0 
L 2906 0 
L 2906 525 
Q 2725 213 2448 61 
Q 2172 -91 1784 -91 
Q 1150 -91 751 415 
Q 353 922 353 1747 
Q 353 2572 751 3078 
Q 1150 3584 1784 3584 
Q 2172 3584 2448 3432 
Q 2725 3281 2906 2969 
z
M 947 1747 
Q 947 1113 1208 752 
Q 1469 391 1925 391 
Q 2381 391 2643 752 
Q 2906 1113 2906 1747 
Q 2906 2381 2643 2742 
Q 2381 3103 1925 3103 
Q 1469 3103 1208 2742 
Q 947 2381 947 1747 
z
" transform="scale(0.015625)"/>
      </defs>
      <use xlink:href="#DejaVuSans-52"/>
      <use xlink:href="#DejaVuSans-65" x="64.982422"/>
      <use xlink:href="#DejaVuSans-62" x="126.505859"/>
      <use xlink:href="#DejaVuSans-61" x="189.982422"/>
      <use xlink:href="#DejaVuSans-6c" x="251.261719"/>
      <use xlink:href="#DejaVuSans-61" x="279.044922"/>
      <use xlink:href="#DejaVuSans-6e" x="340.324219"/>
      <use xlink:href="#DejaVuSans-63" x="403.703125"/>
      <use xlink:href="#DejaVuSans-65" x="458.683594"/>
      <use xlink:href="#DejaVuSans-20" x="520.207031"/>
      <use xlink:href="#DejaVuSans-50" x="551.994141"/>
      <use xlink:href="#DejaVuSans-65" x="608.671875"/>
      <use xlink:href="#DejaVuSans-72" x="670.195312"/>
      <use xlink:href="#DejaVuSans-69" x="711.308594"/>
      <use xlink:href="#DejaVuSans-6f" x="739.091797"/>
      <use xlink:href="#DejaVuSans-64" x="800.273438"/>
     </g>
    </g>
   </g>
   <g id="matplotlib.axis_2">
    <g id="ytick_1">
     <g id="line2d_9">
      <defs>
       <path id="m2903bd3add" d="M 0 0 
L -3.5 0 
" style="stroke: #000000; stroke-width: 0.8"/>
      </defs>
      <g>
       <use xlink:href="#m2903bd3add" x="54" y="192.24" style="stroke: #000000; stroke-width: 0.8"/>
      </g>
     </g>
     <g id="text_10">
      <!-- 0.0 -->
      <g transform="translate(31.096875 196.039219) scale(0.1 -0.1)">
       <use xlink:href="#DejaVuSans-30"/>
       <use xlink:href="#DejaVuSans-2e" x="63.623047"/>
       <use xlink:href="#DejaVuSans-30" x="95.410156"/>
      </g>
     </g>
    </g>
    <g id="ytick_2">
     <g id="line2d_10">
      <g>
       <use xlink:href="#m2903bd3add" x="54" y="160.56" style="stroke: #000000; stroke-width: 0.8"/>
      </g>
     </g>
     <g id="text_11">
      <!-- 0.2 -->
      <g transform="translate(31.096875 164.359219) scale(0.1 -0.1)">
       <use xlink:href="#DejaVuSans-30"/>
       <use xlink:href="#DejaVuSans-2e" x="63.623047"/>
       <use xlink:href="#DejaVuSans-32" x="95.410156"/>
      </g>
     </g>
    </g>
    <g id="ytick_3">
     <g id="line2d_11">
      <g>
       <use xlink:href="#m2903bd3add" x="54" y="128.88" style="stroke: #000000; stroke-width: 0.8"/>
      </g>
     </g>
     <g id="text_12">
      <!-- 0.4 -->
      <g transform="translate(31.096875 132.679219) scale(0.1 -0.1)">
       <defs>
        <path id="DejaVuSans-34" d="M 2419 4116 
L 825 1625 
L 2419 1625 
L 2419 4116 
z
M 2253 4666 
L 3047 4666 
L 3047 1625 
L 3713 1625 
L 3713 1100 
L 3047 1100 
L 3047 0 
L 2419 0 
L 2419 1100 
L 313 1100 
L 313 1709 
L 2253 4666 
z
" transform="scale(0.015625)"/>
       </defs>
       <use xlink:href="#DejaVuSans-30"/>
       <use xlink:href="#DejaVuSans-2e" x="63.623047"/>
       <use xlink:href="#DejaVuSans-34" x="95.410156"/>
      </g>
     </g>
    </g>
    <g id="ytick_4">
     <g id="line2d_12">
      <g>
       <use xlink:href="#m2903bd3add" x="54" y="97.2" style="stroke: #000000; stroke-width: 0.8"/>
      </g>
     </g>
     <g id="text_13">
      <!-- 0.6 -->
      <g transform="translate(31.096875 100.999219) scale(0.1 -0.1)">
       <defs>
        <path id="DejaVuSans-36" d="M 2113 2584 
Q 1688 2584 1439 2293 
Q 1191 2003 1191 1497 
Q 1191 994 1439 701 
Q 1688 409 2113 409 
Q 2538 409 2786 701 
Q 3034 994 3034 1497 
Q 3034 2003 2786 2293 
Q 2538 2584 2113 2584 
z
M 3366 4563 
L 3366 3988 
Q 3128 4100 2886 4159 
Q 2644 4219 2406 4219 
Q 1781 4219 1451 3797 
Q 1122 3375 1075 2522 
Q 1259 2794 1537 2939 
Q 1816 3084 2150 3084 
Q 2853 3084 3261 2657 
Q 3669 2231 3669 1497 
Q 3669 778 3244 343 
Q 2819 -91 2113 -91 
Q 1303 -91 875 529 
Q 447 1150 447 2328 
Q 447 3434 972 4092 
Q 1497 4750 2381 4750 
Q 2619 4750 2861 4703 
Q 3103 4656 3366 4563 
z
" transform="scale(0.015625)"/>
       </defs>
       <use xlink:href="#DejaVuSans-30"/>
       <use xlink:href="#DejaVuSans-2e" x="63.623047"/>
       <use xlink:href="#DejaVuSans-36" x="95.410156"/>
      </g>
     </g>
    </g>
    <g id="ytick_5">
     <g id="line2d_13">
      <g>
       <use xlink:href="#m2903bd3add" x="54" y="65.52" style="stroke: #000000; stroke-width: 0.8"/>
      </g>
     </g>
     <g id="text_14">
      <!-- 0.8 -->
      <g transform="translate(31.096875 69.319219) scale(0.1 -0.1)">
       <defs>
        <path id="DejaVuSans-38" d="M 2034 2216 
Q 1584 2216 1326 1975 
Q 1069 1734 1069 1313 
Q 1069 891 1326 650 
Q 1584 409 2034 409 
Q 2484 409 2743 651 
Q 3003 894 3003 1313 
Q 3003 1734 2745 1975 
Q 2488 2216 2034 2216 
z
M 1403 2484 
Q 997 2584 770 2862 
Q 544 3141 544 3541 
Q 544 4100 942 4425 
Q 1341 4750 2034 4750 
Q 2731 4750 3128 4425 
Q 3525 4100 3525 3541 
Q 3525 3141 3298 2862 
Q 3072 2584 2669 2484 
Q 3125 2378 3379 2068 
Q 3634 1759 3634 1313 
Q 3634 634 3220 271 
Q 2806 -91 2034 -91 
Q 1263 -91 848 271 
Q 434 634 434 1313 
Q 434 1759 690 2068 
Q 947 2378 1403 2484 
z
M 1172 3481 
Q 1172 3119 1398 2916 
Q 1625 2713 2034 2713 
Q 2441 2713 2670 2916 
Q 2900 3119 2900 3481 
Q 2900 3844 2670 4047 
Q 2441 4250 2034 4250 
Q 1625 4250 1398 4047 
Q 1172 3844 1172 3481 
z
" transform="scale(0.015625)"/>
       </defs>
       <use xlink:href="#DejaVuSans-30"/>
       <use xlink:href="#DejaVuSans-2e" x="63.623047"/>
       <use xlink:href="#DejaVuSans-38" x="95.410156"/>
      </g>
     </g>
    </g>
    <g id="ytick_6">
     <g id="line2d_14">
      <g>
       <use xlink:href="#m2903bd3add" x="54" y="33.84" style="stroke: #000000; stroke-width: 0.8"/>
      </g>
     </g>
     <g id="text_15">
      <!-- 1.0 -->
      <g transform="translate(31.096875 37.639219) scale(0.1 -0.1)">
       <use xlink:href="#DejaVuSans-31"/>
       <use xlink:href="#DejaVuSans-2e" x="63.623047"/>
       <use xlink:href="#DejaVuSans-30" x="95.410156"/>
      </g>
     </g>
    </g>
    <g id="text_16">
     <!-- Weights -->
     <g transform="translate(25.017187 129.103437) rotate(-90) scale(0.1 -0.1)">
      <defs>
       <path id="DejaVuSans-57" d="M 213 4666 
L 850 4666 
L 1831 722 
L 2809 4666 
L 3519 4666 
L 4500 722 
L 5478 4666 
L 6119 4666 
L 4947 0 
L 4153 0 
L 3169 4050 
L 2175 0 
L 1381 0 
L 213 4666 
z
" transform="scale(0.015625)"/>
       <path id="DejaVuSans-67" d="M 2906 1791 
Q 2906 2416 2648 2759 
Q 2391 3103 1925 3103 
Q 1463 3103 1205 2759 
Q 947 2416 947 1791 
Q 947 1169 1205 825 
Q 1463 481 1925 481 
Q 2391 481 2648 825 
Q 2906 1169 2906 1791 
z
M 3481 434 
Q 3481 -459 3084 -895 
Q 2688 -1331 1869 -1331 
Q 1566 -1331 1297 -1286 
Q 1028 -1241 775 -1147 
L 775 -588 
Q 1028 -725 1275 -790 
Q 1522 -856 1778 -856 
Q 2344 -856 2625 -561 
Q 2906 -266 2906 331 
L 2906 616 
Q 2728 306 2450 153 
Q 2172 0 1784 0 
Q 1141 0 747 490 
Q 353 981 353 1791 
Q 353 2603 747 3093 
Q 1141 3584 1784 3584 
Q 2172 3584 2450 3431 
Q 2728 3278 2906 2969 
L 2906 3500 
L 3481 3500 
L 3481 434 
z
" transform="scale(0.015625)"/>
       <path id="DejaVuSans-68" d="M 3513 2113 
L 3513 0 
L 2938 0 
L 2938 2094 
Q 2938 2591 2744 2837 
Q 2550 3084 2163 3084 
Q 1697 3084 1428 2787 
Q 1159 2491 1159 1978 
L 1159 0 
L 581 0 
L 581 4863 
L 1159 4863 
L 1159 2956 
Q 1366 3272 1645 3428 
Q 1925 3584 2291 3584 
Q 2894 3584 3203 3211 
Q 3513 2838 3513 2113 
z
" transform="scale(0.015625)"/>
       <path id="DejaVuSans-74" d="M 1172 4494 
L 1172 3500 
L 2356 3500 
L 2356 3053 
L 1172 3053 
L 1172 1153 
Q 1172 725 1289 603 
Q 1406 481 1766 481 
L 2356 481 
L 2356 0 
L 1766 0 
Q 1100 0 847 248 
Q 594 497 594 1153 
L 594 3053 
L 172 3053 
L 172 3500 
L 594 3500 
L 594 4494 
L 1172 4494 
z
" transform="scale(0.015625)"/>
       <path id="DejaVuSans-73" d="M 2834 3397 
L 2834 2853 
Q 2591 2978 2328 3040 
Q 2066 3103 1784 3103 
Q 1356 3103 1142 2972 
Q 928 2841 928 2578 
Q 928 2378 1081 2264 
Q 1234 2150 1697 2047 
L 1894 2003 
Q 2506 1872 2764 1633 
Q 3022 1394 3022 966 
Q 3022 478 2636 193 
Q 2250 -91 1575 -91 
Q 1294 -91 989 -36 
Q 684 19 347 128 
L 347 722 
Q 666 556 975 473 
Q 1284 391 1588 391 
Q 1994 391 2212 530 
Q 2431 669 2431 922 
Q 2431 1156 2273 1281 
Q 2116 1406 1581 1522 
L 1381 1569 
Q 847 1681 609 1914 
Q 372 2147 372 2553 
Q 372 3047 722 3315 
Q 1072 3584 1716 3584 
Q 2034 3584 2315 3537 
Q 2597 3491 2834 3397 
z
" transform="scale(0.015625)"/>
      </defs>
      <use xlink:href="#DejaVuSans-57"/>
      <use xlink:href="#DejaVuSans-65" x="93.001953"/>
      <use xlink:href="#DejaVuSans-69" x="154.525391"/>
      <use xlink:href="#DejaVuSans-67" x="182.308594"/>
      <use xlink:href="#DejaVuSans-68" x="245.785156"/>
      <use xlink:href="#DejaVuSans-74" x="309.164062"/>
      <use xlink:href="#DejaVuSans-73" x="348.373047"/>
     </g>
    </g>
   </g>
   <g id="line2d_15">
    <path d="M 69.218182 192.24 
L 85.237321 192.24 
L 101.256459 192.24 
L 117.275598 192.24 
L 133.294737 192.24 
L 149.313876 192.24 
L 165.333014 192.24 
L 181.352153 192.24 
L 197.371292 192.24 
L 213.390431 192.24 
L 229.409569 192.24 
L 245.428708 192.24 
L 261.447847 192.24 
L 277.466986 192.24 
L 293.486124 192.24 
L 309.505263 192.24 
L 325.524402 192.24 
L 341.543541 192.24 
L 357.562679 192.24 
L 373.581818 192.24 
" clip-path="url(#p692ba9353b)" style="fill: none; stroke: #1f77b4; stroke-width: 1.5; stroke-linecap: square"/>
   </g>
   <g id="line2d_16">
    <path d="M 69.218182 186.327591 
L 85.237321 185.562974 
L 101.256459 186.724976 
L 117.275598 185.867299 
L 133.294737 187.43144 
L 149.313876 188.7582 
L 165.333014 187.209268 
L 181.352153 186.973953 
L 197.371292 185.523405 
L 213.390431 185.17851 
L 229.409569 186.676925 
L 245.428708 187.706333 
L 261.447847 187.293674 
L 277.466986 187.618401 
L 293.486124 187.789429 
L 309.505263 187.370258 
L 325.524402 188.310879 
L 341.543541 188.765776 
L 357.562679 189.215206 
L 373.581818 188.888864 
" clip-path="url(#p692ba9353b)" style="fill: none; stroke: #ff7f0e; stroke-width: 1.5; stroke-linecap: square"/>
   </g>
   <g id="line2d_17">
    <path d="M 69.218182 179.169064 
L 85.237321 179.313571 
L 101.256459 181.448594 
L 117.275598 180.134374 
L 133.294737 182.235066 
L 149.313876 183.648467 
L 165.333014 181.341021 
L 181.352153 181.356145 
L 197.371292 180.059788 
L 213.390431 179.963977 
L 229.409569 182.006584 
L 245.428708 182.499252 
L 261.447847 181.783276 
L 277.466986 180.570269 
L 293.486124 180.342758 
L 309.505263 179.822476 
L 325.524402 180.378799 
L 341.543541 179.74451 
L 357.562679 180.261071 
L 373.581818 180.794667 
" clip-path="url(#p692ba9353b)" style="fill: none; stroke: #2ca02c; stroke-width: 1.5; stroke-linecap: square"/>
   </g>
   <g id="line2d_18">
    <path d="M 69.218182 161.239888 
L 85.237321 161.322802 
L 101.256459 162.516896 
L 117.275598 159.55281 
L 133.294737 153.878208 
L 149.313876 158.128661 
L 165.333014 158.166597 
L 181.352153 156.9923 
L 197.371292 156.767581 
L 213.390431 156.132182 
L 229.409569 155.639069 
L 245.428708 162.143373 
L 261.447847 160.843132 
L 277.466986 156.489661 
L 293.486124 159.646315 
L 309.505263 160.093691 
L 325.524402 162.738126 
L 341.543541 162.653419 
L 357.562679 157.261028 
L 373.581818 157.70318 
" clip-path="url(#p692ba9353b)" style="fill: none; stroke: #d62728; stroke-width: 1.5; stroke-linecap: square"/>
   </g>
   <g id="line2d_19">
    <path d="M 69.218182 156.284818 
L 85.237321 156.549766 
L 101.256459 157.512506 
L 117.275598 154.725466 
L 133.294737 148.637683 
L 149.313876 152.715395 
L 165.333014 152.803751 
L 181.352153 152.292886 
L 197.371292 151.712603 
L 213.390431 151.320735 
L 229.409569 150.988383 
L 245.428708 157.599894 
L 261.447847 156.5075 
L 277.466986 151.582878 
L 293.486124 155.224468 
L 309.505263 155.93491 
L 325.524402 158.766287 
L 341.543541 159.132819 
L 357.562679 153.087242 
L 373.581818 153.360079 
" clip-path="url(#p692ba9353b)" style="fill: none; stroke: #9467bd; stroke-width: 1.5; stroke-linecap: square"/>
   </g>
   <g id="line2d_20">
    <path d="M 69.218182 148.72364 
L 85.237321 149.608626 
L 101.256459 150.259898 
L 117.275598 147.814622 
L 133.294737 141.22837 
L 149.313876 145.481933 
L 165.333014 146.129801 
L 181.352153 145.639432 
L 197.371292 145.865704 
L 213.390431 145.453776 
L 229.409569 145.839683 
L 245.428708 152.796888 
L 261.447847 151.712685 
L 277.466986 145.721609 
L 293.486124 150.025078 
L 309.505263 150.803097 
L 325.524402 153.563825 
L 341.543541 154.244964 
L 357.562679 147.431501 
L 373.581818 147.452126 
" clip-path="url(#p692ba9353b)" style="fill: none; stroke: #8c564b; stroke-width: 1.5; stroke-linecap: square"/>
   </g>
   <g id="line2d_21">
    <path d="M 69.218182 144.971857 
L 85.237321 146.15091 
L 101.256459 147.212626 
L 117.275598 143.728263 
L 133.294737 136.182407 
L 149.313876 141.265375 
L 165.333014 142.267132 
L 181.352153 142.195691 
L 197.371292 142.708283 
L 213.390431 142.562037 
L 229.409569 142.817127 
L 245.428708 149.716185 
L 261.447847 148.618213 
L 277.466986 142.272111 
L 293.486124 146.843946 
L 309.505263 148.027556 
L 325.524402 150.527434 
L 341.543541 151.862073 
L 357.562679 145.204768 
L 373.581818 144.837839 
" clip-path="url(#p692ba9353b)" style="fill: none; stroke: #e377c2; stroke-width: 1.5; stroke-linecap: square"/>
   </g>
   <g id="line2d_22">
    <path d="M 69.218182 140.546105 
L 85.237321 142.508242 
L 101.256459 145.318018 
L 117.275598 142.486912 
L 133.294737 135.554323 
L 149.313876 140.998823 
L 165.333014 142.023059 
L 181.352153 141.923949 
L 197.371292 142.432095 
L 213.390431 142.339022 
L 229.409569 142.687868 
L 245.428708 149.600026 
L 261.447847 148.447886 
L 277.466986 142.063734 
L 293.486124 146.648597 
L 309.505263 147.86802 
L 325.524402 150.354204 
L 341.543541 151.695906 
L 357.562679 145.03866 
L 373.581818 144.705409 
" clip-path="url(#p692ba9353b)" style="fill: none; stroke: #7f7f7f; stroke-width: 1.5; stroke-linecap: square"/>
   </g>
   <g id="line2d_23">
    <path d="M 69.218182 131.62174 
L 85.237321 134.651915 
L 101.256459 139.246365 
L 117.275598 137.005924 
L 133.294737 127.018661 
L 149.313876 134.137515 
L 165.333014 135.728462 
L 181.352153 136.052868 
L 197.371292 136.668806 
L 213.390431 137.515748 
L 229.409569 138.305045 
L 245.428708 144.953232 
L 261.447847 143.561724 
L 277.466986 136.024816 
L 293.486124 140.837242 
L 309.505263 141.707086 
L 325.524402 144.200691 
L 341.543541 145.691237 
L 357.562679 138.773545 
L 373.581818 139.325242 
" clip-path="url(#p692ba9353b)" style="fill: none; stroke: #bcbd22; stroke-width: 1.5; stroke-linecap: square"/>
   </g>
   <g id="line2d_24">
    <path d="M 69.218182 124.745506 
L 85.237321 128.522007 
L 101.256459 134.289758 
L 117.275598 132.550486 
L 133.294737 121.897722 
L 149.313876 128.765615 
L 165.333014 130.328694 
L 181.352153 131.38695 
L 197.371292 132.289142 
L 213.390431 133.614365 
L 229.409569 135.358574 
L 245.428708 142.186078 
L 261.447847 140.049839 
L 277.466986 131.716735 
L 293.486124 136.660403 
L 309.505263 137.942418 
L 325.524402 140.284397 
L 341.543541 141.659246 
L 357.562679 134.530935 
L 373.581818 135.392325 
" clip-path="url(#p692ba9353b)" style="fill: none; stroke: #17becf; stroke-width: 1.5; stroke-linecap: square"/>
   </g>
   <g id="line2d_25">
    <path d="M 69.218182 106.178942 
L 85.237321 105.117548 
L 101.256459 100.727748 
L 117.275598 100.658209 
L 133.294737 101.942174 
L 149.313876 96.917834 
L 165.333014 91.614161 
L 181.352153 86.096048 
L 197.371292 85.36398 
L 213.390431 88.834761 
L 229.409569 85.826581 
L 245.428708 80.614689 
L 261.447847 82.568635 
L 277.466986 87.989678 
L 293.486124 82.623704 
L 309.505263 80.698195 
L 325.524402 75.446088 
L 341.543541 71.953197 
L 357.562679 71.66914 
L 373.581818 79.313067 
" clip-path="url(#p692ba9353b)" style="fill: none; stroke: #1f77b4; stroke-width: 1.5; stroke-linecap: square"/>
   </g>
   <g id="line2d_26">
    <path d="M 69.218182 103.570336 
L 85.237321 102.623879 
L 101.256459 98.448721 
L 117.275598 97.82688 
L 133.294737 99.450322 
L 149.313876 93.93006 
L 165.333014 88.508674 
L 181.352153 83.196757 
L 197.371292 82.553607 
L 213.390431 85.797093 
L 229.409569 82.816083 
L 245.428708 77.831922 
L 261.447847 79.777304 
L 277.466986 85.156234 
L 293.486124 80.199826 
L 309.505263 78.558695 
L 325.524402 73.634139 
L 341.543541 70.203727 
L 357.562679 70.064473 
L 373.581818 77.560428 
" clip-path="url(#p692ba9353b)" style="fill: none; stroke: #ff7f0e; stroke-width: 1.5; stroke-linecap: square"/>
   </g>
   <g id="line2d_27">
    <path d="M 69.218182 101.200861 
L 85.237321 100.529359 
L 101.256459 96.763646 
L 117.275598 96.326636 
L 133.294737 97.516954 
L 149.313876 92.311209 
L 165.333014 86.864091 
L 181.352153 81.907542 
L 197.371292 81.247227 
L 213.390431 84.359041 
L 229.409569 81.401844 
L 245.428708 76.509943 
L 261.447847 78.286848 
L 277.466986 83.448729 
L 293.486124 78.563248 
L 309.505263 77.101348 
L 325.524402 72.163594 
L 341.543541 68.692618 
L 357.562679 68.489979 
L 373.581818 75.860632 
" clip-path="url(#p692ba9353b)" style="fill: none; stroke: #2ca02c; stroke-width: 1.5; stroke-linecap: square"/>
   </g>
   <g id="line2d_28">
    <path d="M 69.218182 93.106349 
L 85.237321 93.826445 
L 101.256459 90.270306 
L 117.275598 89.189415 
L 133.294737 89.252779 
L 149.313876 84.677433 
L 165.333014 79.638306 
L 181.352153 75.303956 
L 197.371292 75.558686 
L 213.390431 78.648689 
L 229.409569 76.146504 
L 245.428708 71.755977 
L 261.447847 73.189116 
L 277.466986 77.053672 
L 293.486124 72.59334 
L 309.505263 70.855048 
L 325.524402 66.186362 
L 341.543541 63.389185 
L 357.562679 62.445428 
L 373.581818 68.829879 
" clip-path="url(#p692ba9353b)" style="fill: none; stroke: #d62728; stroke-width: 1.5; stroke-linecap: square"/>
   </g>
   <g id="line2d_29">
    <path d="M 69.218182 77.076314 
L 85.237321 78.316 
L 101.256459 74.838239 
L 117.275598 72.727616 
L 133.294737 70.755273 
L 149.313876 69.01403 
L 165.333014 66.935518 
L 181.352153 64.744449 
L 197.371292 64.479804 
L 213.390431 67.21581 
L 229.409569 65.089596 
L 245.428708 62.013634 
L 261.447847 63.054574 
L 277.466986 66.241416 
L 293.486124 62.001378 
L 309.505263 61.206281 
L 325.524402 57.696742 
L 341.543541 56.103795 
L 357.562679 55.041102 
L 373.581818 60.030943 
" clip-path="url(#p692ba9353b)" style="fill: none; stroke: #9467bd; stroke-width: 1.5; stroke-linecap: square"/>
   </g>
   <g id="line2d_30">
    <path d="M 69.218182 62.16219 
L 85.237321 61.222657 
L 101.256459 59.373388 
L 117.275598 57.774213 
L 133.294737 60.926475 
L 149.313876 58.486434 
L 165.333014 57.838848 
L 181.352153 55.72049 
L 197.371292 55.664409 
L 213.390431 55.59951 
L 229.409569 55.350265 
L 245.428708 54.592037 
L 261.447847 53.913623 
L 277.466986 55.743317 
L 293.486124 52.654324 
L 309.505263 51.553681 
L 325.524402 51.156157 
L 341.543541 50.260033 
L 357.562679 52.044224 
L 373.581818 56.52462 
" clip-path="url(#p692ba9353b)" style="fill: none; stroke: #8c564b; stroke-width: 1.5; stroke-linecap: square"/>
   </g>
   <g id="line2d_31">
    <path d="M 69.218182 54.060042 
L 85.237321 54.40128 
L 101.256459 52.683469 
L 117.275598 51.587676 
L 133.294737 53.149629 
L 149.313876 50.655536 
L 165.333014 49.798783 
L 181.352153 48.038399 
L 197.371292 48.348039 
L 213.390431 48.223973 
L 229.409569 47.304045 
L 245.428708 47.493173 
L 261.447847 47.344708 
L 277.466986 48.641301 
L 293.486124 46.722818 
L 309.505263 45.827559 
L 325.524402 44.839765 
L 341.543541 44.953282 
L 357.562679 45.64078 
L 373.581818 48.597253 
" clip-path="url(#p692ba9353b)" style="fill: none; stroke: #e377c2; stroke-width: 1.5; stroke-linecap: square"/>
   </g>
   <g id="line2d_32">
    <path d="M 69.218182 38.300407 
L 85.237321 38.054646 
L 101.256459 37.971007 
L 117.275598 37.904158 
L 133.294737 38.535174 
L 149.313876 38.09173 
L 165.333014 37.762115 
L 181.352153 37.533133 
L 197.371292 37.707659 
L 213.390431 37.489237 
L 229.409569 37.552933 
L 245.428708 37.290529 
L 261.447847 37.315509 
L 277.466986 37.752324 
L 293.486124 37.146669 
L 309.505263 36.897699 
L 325.524402 36.615299 
L 341.543541 36.556059 
L 357.562679 36.734194 
L 373.581818 37.446792 
" clip-path="url(#p692ba9353b)" style="fill: none; stroke: #7f7f7f; stroke-width: 1.5; stroke-linecap: square"/>
   </g>
   <g id="line2d_33">
    <path d="M 69.218182 34.719833 
L 85.237321 34.510221 
L 101.256459 34.583495 
L 117.275598 34.736435 
L 133.294737 34.703645 
L 149.313876 34.673328 
L 165.333014 34.635814 
L 181.352153 34.861732 
L 197.371292 34.665315 
L 213.390431 34.509375 
L 229.409569 34.529091 
L 245.428708 34.326624 
L 261.447847 34.320036 
L 277.466986 34.158874 
L 293.486124 34.055025 
L 309.505263 34.056084 
L 325.524402 33.992014 
L 341.543541 34.016719 
L 357.562679 33.985376 
L 373.581818 34.14749 
" clip-path="url(#p692ba9353b)" style="fill: none; stroke: #bcbd22; stroke-width: 1.5; stroke-linecap: square"/>
   </g>
   <g id="line2d_34">
    <path d="M 69.218182 33.84 
L 85.237321 33.84 
L 101.256459 33.84 
L 117.275598 33.84 
L 133.294737 33.84 
L 149.313876 33.84 
L 165.333014 33.84 
L 181.352153 33.84 
L 197.371292 33.84 
L 213.390431 33.84 
L 229.409569 33.84 
L 245.428708 33.84 
L 261.447847 33.84 
L 277.466986 33.84 
L 293.486124 33.84 
L 309.505263 33.84 
L 325.524402 33.84 
L 341.543541 33.84 
L 357.562679 33.84 
L 373.581818 33.84 
" clip-path="url(#p692ba9353b)" style="fill: none; stroke: #17becf; stroke-width: 1.5; stroke-linecap: square"/>
   </g>
   <g id="patch_3">
    <path d="M 54 192.24 
L 54 25.92 
" style="fill: none; stroke: #000000; stroke-width: 0.8; stroke-linejoin: miter; stroke-linecap: square"/>
   </g>
   <g id="patch_4">
    <path d="M 388.8 192.24 
L 388.8 25.92 
" style="fill: none; stroke: #000000; stroke-width: 0.8; stroke-linejoin: miter; stroke-linecap: square"/>
   </g>
   <g id="patch_5">
    <path d="M 54 192.24 
L 388.8 192.24 
" style="fill: none; stroke: #000000; stroke-width: 0.8; stroke-linejoin: miter; stroke-linecap: square"/>
   </g>
   <g id="patch_6">
    <path d="M 54 25.92 
L 388.8 25.92 
" style="fill: none; stroke: #000000; stroke-width: 0.8; stroke-linejoin: miter; stroke-linecap: square"/>
   </g>
   <g id="text_17">
    <!-- Portfolio weights -->
    <g transform="translate(171.459375 19.92) scale(0.12 -0.12)">
     <defs>
      <path id="DejaVuSans-66" d="M 2375 4863 
L 2375 4384 
L 1825 4384 
Q 1516 4384 1395 4259 
Q 1275 4134 1275 3809 
L 1275 3500 
L 2222 3500 
L 2222 3053 
L 1275 3053 
L 1275 0 
L 697 0 
L 697 3053 
L 147 3053 
L 147 3500 
L 697 3500 
L 697 3744 
Q 697 4328 969 4595 
Q 1241 4863 1831 4863 
L 2375 4863 
z
" transform="scale(0.015625)"/>
      <path id="DejaVuSans-77" d="M 269 3500 
L 844 3500 
L 1563 769 
L 2278 3500 
L 2956 3500 
L 3675 769 
L 4391 3500 
L 4966 3500 
L 4050 0 
L 3372 0 
L 2619 2869 
L 1863 0 
L 1184 0 
L 269 3500 
z
" transform="scale(0.015625)"/>
     </defs>
     <use xlink:href="#DejaVuSans-50"/>
     <use xlink:href="#DejaVuSans-6f" x="56.677734"/>
     <use xlink:href="#DejaVuSans-72" x="117.859375"/>
     <use xlink:href="#DejaVuSans-74" x="158.972656"/>
     <use xlink:href="#DejaVuSans-66" x="198.181641"/>
     <use xlink:href="#DejaVuSans-6f" x="233.386719"/>
     <use xlink:href="#DejaVuSans-6c" x="294.568359"/>
     <use xlink:href="#DejaVuSans-69" x="322.351562"/>
     <use xlink:href="#DejaVuSans-6f" x="350.134766"/>
     <use xlink:href="#DejaVuSans-20" x="411.316406"/>
     <use xlink:href="#DejaVuSans-77" x="443.103516"/>
     <use xlink:href="#DejaVuSans-65" x="524.890625"/>
     <use xlink:href="#DejaVuSans-69" x="586.414062"/>
     <use xlink:href="#DejaVuSans-67" x="614.197266"/>
     <use xlink:href="#DejaVuSans-68" x="677.673828"/>
     <use xlink:href="#DejaVuSans-74" x="741.052734"/>
     <use xlink:href="#DejaVuSans-73" x="780.261719"/>
    </g>
   </g>
   <g id="legend_1">
    <g id="patch_7">
     <path d="M 395.8 257.36125 
L 453.357813 257.36125 
Q 455.357813 257.36125 455.357813 255.36125 
L 455.357813 -37.20125 
Q 455.357813 -39.20125 453.357813 -39.20125 
L 395.8 -39.20125 
Q 393.8 -39.20125 393.8 -37.20125 
L 393.8 255.36125 
Q 393.8 257.36125 395.8 257.36125 
z
" style="fill: #ffffff; opacity: 0.8; stroke: #cccccc; stroke-linejoin: miter"/>
    </g>
    <g id="patch_8">
     <path d="M 397.8 -27.602813 
L 417.8 -27.602813 
L 417.8 -34.602813 
L 397.8 -34.602813 
z
" style="fill: #1f77b4; stroke: #1f77b4; stroke-linejoin: miter"/>
    </g>
    <g id="text_18">
     <!-- F -->
     <g transform="translate(425.8 -27.602813) scale(0.1 -0.1)">
      <defs>
       <path id="DejaVuSans-46" d="M 628 4666 
L 3309 4666 
L 3309 4134 
L 1259 4134 
L 1259 2759 
L 3109 2759 
L 3109 2228 
L 1259 2228 
L 1259 0 
L 628 0 
L 628 4666 
z
" transform="scale(0.015625)"/>
      </defs>
      <use xlink:href="#DejaVuSans-46"/>
     </g>
    </g>
    <g id="patch_9">
     <path d="M 397.8 -12.924688 
L 417.8 -12.924688 
L 417.8 -19.924688 
L 397.8 -19.924688 
z
" style="fill: #ff7f0e; stroke: #ff7f0e; stroke-linejoin: miter"/>
    </g>
    <g id="text_19">
     <!-- CAT -->
     <g transform="translate(425.8 -12.924688) scale(0.1 -0.1)">
      <defs>
       <path id="DejaVuSans-43" d="M 4122 4306 
L 4122 3641 
Q 3803 3938 3442 4084 
Q 3081 4231 2675 4231 
Q 1875 4231 1450 3742 
Q 1025 3253 1025 2328 
Q 1025 1406 1450 917 
Q 1875 428 2675 428 
Q 3081 428 3442 575 
Q 3803 722 4122 1019 
L 4122 359 
Q 3791 134 3420 21 
Q 3050 -91 2638 -91 
Q 1578 -91 968 557 
Q 359 1206 359 2328 
Q 359 3453 968 4101 
Q 1578 4750 2638 4750 
Q 3056 4750 3426 4639 
Q 3797 4528 4122 4306 
z
" transform="scale(0.015625)"/>
       <path id="DejaVuSans-41" d="M 2188 4044 
L 1331 1722 
L 3047 1722 
L 2188 4044 
z
M 1831 4666 
L 2547 4666 
L 4325 0 
L 3669 0 
L 3244 1197 
L 1141 1197 
L 716 0 
L 50 0 
L 1831 4666 
z
" transform="scale(0.015625)"/>
       <path id="DejaVuSans-54" d="M -19 4666 
L 3928 4666 
L 3928 4134 
L 2272 4134 
L 2272 0 
L 1638 0 
L 1638 4134 
L -19 4134 
L -19 4666 
z
" transform="scale(0.015625)"/>
      </defs>
      <use xlink:href="#DejaVuSans-43"/>
      <use xlink:href="#DejaVuSans-41" x="69.824219"/>
      <use xlink:href="#DejaVuSans-54" x="130.482422"/>
     </g>
    </g>
    <g id="patch_10">
     <path d="M 397.8 1.753437 
L 417.8 1.753437 
L 417.8 -5.246563 
L 397.8 -5.246563 
z
" style="fill: #2ca02c; stroke: #2ca02c; stroke-linejoin: miter"/>
    </g>
    <g id="text_20">
     <!-- DIS -->
     <g transform="translate(425.8 1.753437) scale(0.1 -0.1)">
      <defs>
       <path id="DejaVuSans-44" d="M 1259 4147 
L 1259 519 
L 2022 519 
Q 2988 519 3436 956 
Q 3884 1394 3884 2338 
Q 3884 3275 3436 3711 
Q 2988 4147 2022 4147 
L 1259 4147 
z
M 628 4666 
L 1925 4666 
Q 3281 4666 3915 4102 
Q 4550 3538 4550 2338 
Q 4550 1131 3912 565 
Q 3275 0 1925 0 
L 628 0 
L 628 4666 
z
" transform="scale(0.015625)"/>
       <path id="DejaVuSans-49" d="M 628 4666 
L 1259 4666 
L 1259 0 
L 628 0 
L 628 4666 
z
" transform="scale(0.015625)"/>
       <path id="DejaVuSans-53" d="M 3425 4513 
L 3425 3897 
Q 3066 4069 2747 4153 
Q 2428 4238 2131 4238 
Q 1616 4238 1336 4038 
Q 1056 3838 1056 3469 
Q 1056 3159 1242 3001 
Q 1428 2844 1947 2747 
L 2328 2669 
Q 3034 2534 3370 2195 
Q 3706 1856 3706 1288 
Q 3706 609 3251 259 
Q 2797 -91 1919 -91 
Q 1588 -91 1214 -16 
Q 841 59 441 206 
L 441 856 
Q 825 641 1194 531 
Q 1563 422 1919 422 
Q 2459 422 2753 634 
Q 3047 847 3047 1241 
Q 3047 1584 2836 1778 
Q 2625 1972 2144 2069 
L 1759 2144 
Q 1053 2284 737 2584 
Q 422 2884 422 3419 
Q 422 4038 858 4394 
Q 1294 4750 2059 4750 
Q 2388 4750 2728 4690 
Q 3069 4631 3425 4513 
z
" transform="scale(0.015625)"/>
      </defs>
      <use xlink:href="#DejaVuSans-44"/>
      <use xlink:href="#DejaVuSans-49" x="77.001953"/>
      <use xlink:href="#DejaVuSans-53" x="106.494141"/>
     </g>
    </g>
    <g id="patch_11">
     <path d="M 397.8 16.431562 
L 417.8 16.431562 
L 417.8 9.431562 
L 397.8 9.431562 
z
" style="fill: #d62728; stroke: #d62728; stroke-linejoin: miter"/>
    </g>
    <g id="text_21">
     <!-- MCD -->
     <g transform="translate(425.8 16.431562) scale(0.1 -0.1)">
      <defs>
       <path id="DejaVuSans-4d" d="M 628 4666 
L 1569 4666 
L 2759 1491 
L 3956 4666 
L 4897 4666 
L 4897 0 
L 4281 0 
L 4281 4097 
L 3078 897 
L 2444 897 
L 1241 4097 
L 1241 0 
L 628 0 
L 628 4666 
z
" transform="scale(0.015625)"/>
      </defs>
      <use xlink:href="#DejaVuSans-4d"/>
      <use xlink:href="#DejaVuSans-43" x="86.279297"/>
      <use xlink:href="#DejaVuSans-44" x="156.103516"/>
     </g>
    </g>
    <g id="patch_12">
     <path d="M 397.8 31.109688 
L 417.8 31.109688 
L 417.8 24.109688 
L 397.8 24.109688 
z
" style="fill: #9467bd; stroke: #9467bd; stroke-linejoin: miter"/>
    </g>
    <g id="text_22">
     <!-- KO -->
     <g transform="translate(425.8 31.109688) scale(0.1 -0.1)">
      <defs>
       <path id="DejaVuSans-4b" d="M 628 4666 
L 1259 4666 
L 1259 2694 
L 3353 4666 
L 4166 4666 
L 1850 2491 
L 4331 0 
L 3500 0 
L 1259 2247 
L 1259 0 
L 628 0 
L 628 4666 
z
" transform="scale(0.015625)"/>
       <path id="DejaVuSans-4f" d="M 2522 4238 
Q 1834 4238 1429 3725 
Q 1025 3213 1025 2328 
Q 1025 1447 1429 934 
Q 1834 422 2522 422 
Q 3209 422 3611 934 
Q 4013 1447 4013 2328 
Q 4013 3213 3611 3725 
Q 3209 4238 2522 4238 
z
M 2522 4750 
Q 3503 4750 4090 4092 
Q 4678 3434 4678 2328 
Q 4678 1225 4090 567 
Q 3503 -91 2522 -91 
Q 1538 -91 948 565 
Q 359 1222 359 2328 
Q 359 3434 948 4092 
Q 1538 4750 2522 4750 
z
" transform="scale(0.015625)"/>
      </defs>
      <use xlink:href="#DejaVuSans-4b"/>
      <use xlink:href="#DejaVuSans-4f" x="60.076172"/>
     </g>
    </g>
    <g id="patch_13">
     <path d="M 397.8 45.787812 
L 417.8 45.787812 
L 417.8 38.787812 
L 397.8 38.787812 
z
" style="fill: #8c564b; stroke: #8c564b; stroke-linejoin: miter"/>
    </g>
    <g id="text_23">
     <!-- PEP -->
     <g transform="translate(425.8 45.787812) scale(0.1 -0.1)">
      <defs>
       <path id="DejaVuSans-45" d="M 628 4666 
L 3578 4666 
L 3578 4134 
L 1259 4134 
L 1259 2753 
L 3481 2753 
L 3481 2222 
L 1259 2222 
L 1259 531 
L 3634 531 
L 3634 0 
L 628 0 
L 628 4666 
z
" transform="scale(0.015625)"/>
      </defs>
      <use xlink:href="#DejaVuSans-50"/>
      <use xlink:href="#DejaVuSans-45" x="60.302734"/>
      <use xlink:href="#DejaVuSans-50" x="123.486328"/>
     </g>
    </g>
    <g id="patch_14">
     <path d="M 397.8 60.465937 
L 417.8 60.465937 
L 417.8 53.465937 
L 397.8 53.465937 
z
" style="fill: #e377c2; stroke: #e377c2; stroke-linejoin: miter"/>
    </g>
    <g id="text_24">
     <!-- WMT -->
     <g transform="translate(425.8 60.465937) scale(0.1 -0.1)">
      <use xlink:href="#DejaVuSans-57"/>
      <use xlink:href="#DejaVuSans-4d" x="98.876953"/>
      <use xlink:href="#DejaVuSans-54" x="185.15625"/>
     </g>
    </g>
    <g id="patch_15">
     <path d="M 397.8 75.144062 
L 417.8 75.144062 
L 417.8 68.144062 
L 397.8 68.144062 
z
" style="fill: #7f7f7f; stroke: #7f7f7f; stroke-linejoin: miter"/>
    </g>
    <g id="text_25">
     <!-- C -->
     <g transform="translate(425.8 75.144062) scale(0.1 -0.1)">
      <use xlink:href="#DejaVuSans-43"/>
     </g>
    </g>
    <g id="patch_16">
     <path d="M 397.8 89.822187 
L 417.8 89.822187 
L 417.8 82.822187 
L 397.8 82.822187 
z
" style="fill: #bcbd22; stroke: #bcbd22; stroke-linejoin: miter"/>
    </g>
    <g id="text_26">
     <!-- WFC -->
     <g transform="translate(425.8 89.822187) scale(0.1 -0.1)">
      <use xlink:href="#DejaVuSans-57"/>
      <use xlink:href="#DejaVuSans-46" x="98.876953"/>
      <use xlink:href="#DejaVuSans-43" x="156.396484"/>
     </g>
    </g>
    <g id="patch_17">
     <path d="M 397.8 104.500312 
L 417.8 104.500312 
L 417.8 97.500312 
L 397.8 97.500312 
z
" style="fill: #17becf; stroke: #17becf; stroke-linejoin: miter"/>
    </g>
    <g id="text_27">
     <!-- JPM -->
     <g transform="translate(425.8 104.500312) scale(0.1 -0.1)">
      <defs>
       <path id="DejaVuSans-4a" d="M 628 4666 
L 1259 4666 
L 1259 325 
Q 1259 -519 939 -900 
Q 619 -1281 -91 -1281 
L -331 -1281 
L -331 -750 
L -134 -750 
Q 284 -750 456 -515 
Q 628 -281 628 325 
L 628 4666 
z
" transform="scale(0.015625)"/>
      </defs>
      <use xlink:href="#DejaVuSans-4a"/>
      <use xlink:href="#DejaVuSans-50" x="29.492188"/>
      <use xlink:href="#DejaVuSans-4d" x="89.794922"/>
     </g>
    </g>
    <g id="patch_18">
     <path d="M 397.8 119.178437 
L 417.8 119.178437 
L 417.8 112.178437 
L 397.8 112.178437 
z
" style="fill: #1f77b4; stroke: #1f77b4; stroke-linejoin: miter"/>
    </g>
    <g id="text_28">
     <!-- AAPL -->
     <g transform="translate(425.8 119.178437) scale(0.1 -0.1)">
      <defs>
       <path id="DejaVuSans-4c" d="M 628 4666 
L 1259 4666 
L 1259 531 
L 3531 531 
L 3531 0 
L 628 0 
L 628 4666 
z
" transform="scale(0.015625)"/>
      </defs>
      <use xlink:href="#DejaVuSans-41"/>
      <use xlink:href="#DejaVuSans-41" x="71.158203"/>
      <use xlink:href="#DejaVuSans-50" x="139.566406"/>
      <use xlink:href="#DejaVuSans-4c" x="199.869141"/>
     </g>
    </g>
    <g id="patch_19">
     <path d="M 397.8 133.856562 
L 417.8 133.856562 
L 417.8 126.856562 
L 397.8 126.856562 
z
" style="fill: #ff7f0e; stroke: #ff7f0e; stroke-linejoin: miter"/>
    </g>
    <g id="text_29">
     <!-- IBM -->
     <g transform="translate(425.8 133.856562) scale(0.1 -0.1)">
      <defs>
       <path id="DejaVuSans-42" d="M 1259 2228 
L 1259 519 
L 2272 519 
Q 2781 519 3026 730 
Q 3272 941 3272 1375 
Q 3272 1813 3026 2020 
Q 2781 2228 2272 2228 
L 1259 2228 
z
M 1259 4147 
L 1259 2741 
L 2194 2741 
Q 2656 2741 2882 2914 
Q 3109 3088 3109 3444 
Q 3109 3797 2882 3972 
Q 2656 4147 2194 4147 
L 1259 4147 
z
M 628 4666 
L 2241 4666 
Q 2963 4666 3353 4366 
Q 3744 4066 3744 3513 
Q 3744 3084 3544 2831 
Q 3344 2578 2956 2516 
Q 3422 2416 3680 2098 
Q 3938 1781 3938 1306 
Q 3938 681 3513 340 
Q 3088 0 2303 0 
L 628 0 
L 628 4666 
z
" transform="scale(0.015625)"/>
      </defs>
      <use xlink:href="#DejaVuSans-49"/>
      <use xlink:href="#DejaVuSans-42" x="29.492188"/>
      <use xlink:href="#DejaVuSans-4d" x="98.095703"/>
     </g>
    </g>
    <g id="patch_20">
     <path d="M 397.8 148.534687 
L 417.8 148.534687 
L 417.8 141.534687 
L 397.8 141.534687 
z
" style="fill: #2ca02c; stroke: #2ca02c; stroke-linejoin: miter"/>
    </g>
    <g id="text_30">
     <!-- PFE -->
     <g transform="translate(425.8 148.534687) scale(0.1 -0.1)">
      <use xlink:href="#DejaVuSans-50"/>
      <use xlink:href="#DejaVuSans-46" x="60.302734"/>
      <use xlink:href="#DejaVuSans-45" x="117.822266"/>
     </g>
    </g>
    <g id="patch_21">
     <path d="M 397.8 163.212812 
L 417.8 163.212812 
L 417.8 156.212812 
L 397.8 156.212812 
z
" style="fill: #d62728; stroke: #d62728; stroke-linejoin: miter"/>
    </g>
    <g id="text_31">
     <!-- JNJ -->
     <g transform="translate(425.8 163.212812) scale(0.1 -0.1)">
      <defs>
       <path id="DejaVuSans-4e" d="M 628 4666 
L 1478 4666 
L 3547 763 
L 3547 4666 
L 4159 4666 
L 4159 0 
L 3309 0 
L 1241 3903 
L 1241 0 
L 628 0 
L 628 4666 
z
" transform="scale(0.015625)"/>
      </defs>
      <use xlink:href="#DejaVuSans-4a"/>
      <use xlink:href="#DejaVuSans-4e" x="29.492188"/>
      <use xlink:href="#DejaVuSans-4a" x="104.296875"/>
     </g>
    </g>
    <g id="patch_22">
     <path d="M 397.8 177.890937 
L 417.8 177.890937 
L 417.8 170.890937 
L 397.8 170.890937 
z
" style="fill: #9467bd; stroke: #9467bd; stroke-linejoin: miter"/>
    </g>
    <g id="text_32">
     <!-- XOM -->
     <g transform="translate(425.8 177.890937) scale(0.1 -0.1)">
      <defs>
       <path id="DejaVuSans-58" d="M 403 4666 
L 1081 4666 
L 2241 2931 
L 3406 4666 
L 4084 4666 
L 2584 2425 
L 4184 0 
L 3506 0 
L 2194 1984 
L 872 0 
L 191 0 
L 1856 2491 
L 403 4666 
z
" transform="scale(0.015625)"/>
      </defs>
      <use xlink:href="#DejaVuSans-58"/>
      <use xlink:href="#DejaVuSans-4f" x="62.130859"/>
      <use xlink:href="#DejaVuSans-4d" x="140.841797"/>
     </g>
    </g>
    <g id="patch_23">
     <path d="M 397.8 192.569062 
L 417.8 192.569062 
L 417.8 185.569062 
L 397.8 185.569062 
z
" style="fill: #8c564b; stroke: #8c564b; stroke-linejoin: miter"/>
    </g>
    <g id="text_33">
     <!-- MRO -->
     <g transform="translate(425.8 192.569062) scale(0.1 -0.1)">
      <use xlink:href="#DejaVuSans-4d"/>
      <use xlink:href="#DejaVuSans-52" x="86.279297"/>
      <use xlink:href="#DejaVuSans-4f" x="155.761719"/>
     </g>
    </g>
    <g id="patch_24">
     <path d="M 397.8 207.247187 
L 417.8 207.247187 
L 417.8 200.247187 
L 397.8 200.247187 
z
" style="fill: #e377c2; stroke: #e377c2; stroke-linejoin: miter"/>
    </g>
    <g id="text_34">
     <!-- ED -->
     <g transform="translate(425.8 207.247187) scale(0.1 -0.1)">
      <use xlink:href="#DejaVuSans-45"/>
      <use xlink:href="#DejaVuSans-44" x="63.183594"/>
     </g>
    </g>
    <g id="patch_25">
     <path d="M 397.8 221.925312 
L 417.8 221.925312 
L 417.8 214.925312 
L 397.8 214.925312 
z
" style="fill: #7f7f7f; stroke: #7f7f7f; stroke-linejoin: miter"/>
    </g>
    <g id="text_35">
     <!-- T -->
     <g transform="translate(425.8 221.925312) scale(0.1 -0.1)">
      <use xlink:href="#DejaVuSans-54"/>
     </g>
    </g>
    <g id="patch_26">
     <path d="M 397.8 236.603437 
L 417.8 236.603437 
L 417.8 229.603437 
L 397.8 229.603437 
z
" style="fill: #bcbd22; stroke: #bcbd22; stroke-linejoin: miter"/>
    </g>
    <g id="text_36">
     <!-- VZ -->
     <g transform="translate(425.8 236.603437) scale(0.1 -0.1)">
      <defs>
       <path id="DejaVuSans-56" d="M 1831 0 
L 50 4666 
L 709 4666 
L 2188 738 
L 3669 4666 
L 4325 4666 
L 2547 0 
L 1831 0 
z
" transform="scale(0.015625)"/>
       <path id="DejaVuSans-5a" d="M 359 4666 
L 4025 4666 
L 4025 4184 
L 1075 531 
L 4097 531 
L 4097 0 
L 288 0 
L 288 481 
L 3238 4134 
L 359 4134 
L 359 4666 
z
" transform="scale(0.015625)"/>
      </defs>
      <use xlink:href="#DejaVuSans-56"/>
      <use xlink:href="#DejaVuSans-5a" x="68.408203"/>
     </g>
    </g>
    <g id="patch_27">
     <path d="M 397.8 251.281562 
L 417.8 251.281562 
L 417.8 244.281562 
L 397.8 244.281562 
z
" style="fill: #17becf; stroke: #17becf; stroke-linejoin: miter"/>
    </g>
    <g id="text_37">
     <!-- NEM -->
     <g transform="translate(425.8 251.281562) scale(0.1 -0.1)">
      <use xlink:href="#DejaVuSans-4e"/>
      <use xlink:href="#DejaVuSans-45" x="74.804688"/>
      <use xlink:href="#DejaVuSans-4d" x="137.988281"/>
     </g>
    </g>
   </g>
  </g>
 </g>
 <defs>
  <clipPath id="p692ba9353b">
   <rect x="54" y="25.92" width="334.8" height="166.32"/>
  </clipPath>
 </defs>
</svg>
